<?xml version="1.0" encoding="UTF-8" standalone="no"?>
<!DOCTYPE svg PUBLIC "-//W3C//DTD SVG 1.1//EN"
 "http://www.w3.org/Graphics/SVG/1.1/DTD/svg11.dtd">
<!-- Generated by graphviz version 2.40.1 (20161225.0304)
 -->
<!-- Title: SchemaCrawler_Diagram Pages: 1 -->
<svg width="2541pt" height="484pt"
 viewBox="0.00 0.00 2541.00 484.00" xmlns="http://www.w3.org/2000/svg" xmlns:xlink="http://www.w3.org/1999/xlink">
<g id="graph0" class="graph" transform="scale(1 1) rotate(0) translate(4 480)">
<title>SchemaCrawler_Diagram</title>
<polygon fill="#ffffff" stroke="transparent" points="-4,4 -4,-480 2537,-480 2537,4 -4,4"/>
<text text-anchor="start" x="2293" y="-29.8" font-family="Helvetica,sans-Serif" font-size="14.00" fill="#000000">generated by</text>
<text text-anchor="start" x="2379" y="-29.8" font-family="Helvetica,sans-Serif" font-size="14.00" fill="#000000">SchemaCrawler 16.6.1</text>
<text text-anchor="start" x="2292" y="-10.8" font-family="Helvetica,sans-Serif" font-size="14.00" fill="#000000">generated on</text>
<text text-anchor="start" x="2379" y="-10.8" font-family="Helvetica,sans-Serif" font-size="14.00" fill="#000000">2021&#45;05&#45;04 16:16:33</text>
<polygon fill="none" stroke="#888888" points="2289,-4 2289,-44 2525,-44 2525,-4 2289,-4"/>
<!-- coordinate_28c5d5d7 -->
<g id="node1" class="node">
<title>coordinate_28c5d5d7</title>
<polygon fill="#f2e9ce" stroke="transparent" points="1002,-437 1002,-456 1155,-456 1155,-437 1002,-437"/>
<text text-anchor="start" x="1004" y="-443.8" font-family="Helvetica,sans-Serif" font-weight="bold" font-style="italic" font-size="14.00" fill="#000000">COORDINATE</text>
<polygon fill="#f2e9ce" stroke="transparent" points="1155,-437 1155,-456 1295,-456 1295,-437 1155,-437"/>
<text text-anchor="start" x="1254" y="-442.8" font-family="Helvetica,sans-Serif" font-size="14.00" fill="#000000">[table]</text>
<text text-anchor="start" x="1004" y="-424.8" font-family="Helvetica,sans-Serif" font-weight="bold" font-style="italic" font-size="14.00" fill="#000000">coordinate_id</text>
<text text-anchor="start" x="1149" y="-423.8" font-family="Helvetica,sans-Serif" font-size="14.00" fill="#000000"> </text>
<text text-anchor="start" x="1157" y="-423.8" font-family="Helvetica,sans-Serif" font-size="14.00" fill="#000000">INTEGER</text>
<text text-anchor="start" x="1004" y="-404.8" font-family="Helvetica,sans-Serif" font-size="14.00" fill="#000000">ecosystem_id</text>
<text text-anchor="start" x="1149" y="-404.8" font-family="Helvetica,sans-Serif" font-size="14.00" fill="#000000"> </text>
<text text-anchor="start" x="1157" y="-404.8" font-family="Helvetica,sans-Serif" font-size="14.00" fill="#000000">INTEGER NOT NULL</text>
<text text-anchor="start" x="1004" y="-385.8" font-family="Helvetica,sans-Serif" font-size="14.00" fill="#000000">versioned_package_id</text>
<text text-anchor="start" x="1149" y="-385.8" font-family="Helvetica,sans-Serif" font-size="14.00" fill="#000000"> </text>
<text text-anchor="start" x="1157" y="-385.8" font-family="Helvetica,sans-Serif" font-size="14.00" fill="#000000">INTEGER NOT NULL</text>
<polygon fill="none" stroke="#888888" points="1000.5,-379 1000.5,-457 1295.5,-457 1295.5,-379 1000.5,-379"/>
</g>
<!-- ecosystem_c1ccd3f -->
<g id="node6" class="node">
<title>ecosystem_c1ccd3f</title>
<polygon fill="#f2e9ce" stroke="transparent" points="9,-368 9,-387 114,-387 114,-368 9,-368"/>
<text text-anchor="start" x="11" y="-374.8" font-family="Helvetica,sans-Serif" font-weight="bold" font-style="italic" font-size="14.00" fill="#000000">ECOSYSTEM</text>
<polygon fill="#f2e9ce" stroke="transparent" points="114,-368 114,-387 227,-387 227,-368 114,-368"/>
<text text-anchor="start" x="186" y="-373.8" font-family="Helvetica,sans-Serif" font-size="14.00" fill="#000000">[table]</text>
<text text-anchor="start" x="11" y="-355.8" font-family="Helvetica,sans-Serif" font-weight="bold" font-style="italic" font-size="14.00" fill="#000000">ecosystem_id</text>
<text text-anchor="start" x="108" y="-354.8" font-family="Helvetica,sans-Serif" font-size="14.00" fill="#000000"> </text>
<text text-anchor="start" x="116" y="-354.8" font-family="Helvetica,sans-Serif" font-size="14.00" fill="#000000">INTEGER</text>
<text text-anchor="start" x="11" y="-335.8" font-family="Helvetica,sans-Serif" font-size="14.00" fill="#000000">name</text>
<text text-anchor="start" x="108" y="-335.8" font-family="Helvetica,sans-Serif" font-size="14.00" fill="#000000"> </text>
<text text-anchor="start" x="116" y="-335.8" font-family="Helvetica,sans-Serif" font-size="14.00" fill="#000000">TEXT NOT NULL</text>
<polygon fill="none" stroke="#888888" points="8,-329.5 8,-388.5 228,-388.5 228,-329.5 8,-329.5"/>
</g>
<!-- coordinate_28c5d5d7&#45;&gt;ecosystem_c1ccd3f -->
<g id="edge4" class="edge">
<title>coordinate_28c5d5d7:w&#45;&gt;ecosystem_c1ccd3f:e</title>
<path fill="none" stroke="#000000" d="M983.6981,-408.0146C673.816,-408.5054 586.6048,-420.9074 272,-370 255.3981,-367.3136 249.7318,-361.0707 237.0881,-358.8241"/>
<polygon fill="#000000" stroke="#000000" points="992,-408.008 1002.0036,-412.5 997,-408.004 1002,-408 1002,-408 1002,-408 997,-408.004 1001.9964,-403.5 992,-408.008 992,-408.008"/>
<ellipse fill="none" stroke="#000000" cx="988" cy="-408.0112" rx="4" ry="4"/>
<polygon fill="#000000" stroke="#000000" points="227.5895,-363.0648 228.4038,-353.098 230.3972,-353.2609 229.5829,-363.2277 227.5895,-363.0648"/>
<polyline fill="none" stroke="#000000" points="227,-358 231.9834,-358.4071 "/>
<polygon fill="#000000" stroke="#000000" points="232.5729,-363.472 233.3872,-353.5052 235.3806,-353.668 234.5663,-363.6348 232.5729,-363.472"/>
<polyline fill="none" stroke="#000000" points="231.9834,-358.4071 236.9668,-358.8143 "/>
</g>
<!-- versioned_package_6aa8f79d -->
<g id="node9" class="node">
<title>versioned_package_6aa8f79d</title>
<polygon fill="#f2e9ce" stroke="transparent" points="596.5,-356 596.5,-375 761.5,-375 761.5,-356 596.5,-356"/>
<text text-anchor="start" x="598.5" y="-362.8" font-family="Helvetica,sans-Serif" font-weight="bold" font-style="italic" font-size="14.00" fill="#000000">VERSIONED_PACKAGE</text>
<polygon fill="#f2e9ce" stroke="transparent" points="761.5,-356 761.5,-375 901.5,-375 901.5,-356 761.5,-356"/>
<text text-anchor="start" x="860.5" y="-361.8" font-family="Helvetica,sans-Serif" font-size="14.00" fill="#000000">[table]</text>
<text text-anchor="start" x="598.5" y="-343.8" font-family="Helvetica,sans-Serif" font-weight="bold" font-style="italic" font-size="14.00" fill="#000000">versioned_package_id</text>
<text text-anchor="start" x="754.5" y="-342.8" font-family="Helvetica,sans-Serif" font-size="14.00" fill="#000000"> </text>
<text text-anchor="start" x="763.5" y="-342.8" font-family="Helvetica,sans-Serif" font-size="14.00" fill="#000000">INTEGER</text>
<text text-anchor="start" x="598.5" y="-323.8" font-family="Helvetica,sans-Serif" font-size="14.00" fill="#000000">package_id</text>
<text text-anchor="start" x="754.5" y="-323.8" font-family="Helvetica,sans-Serif" font-size="14.00" fill="#000000"> </text>
<text text-anchor="start" x="763.5" y="-323.8" font-family="Helvetica,sans-Serif" font-size="14.00" fill="#000000">INTEGER NOT NULL</text>
<text text-anchor="start" x="598.5" y="-304.8" font-family="Helvetica,sans-Serif" font-size="14.00" fill="#000000">name</text>
<text text-anchor="start" x="754.5" y="-304.8" font-family="Helvetica,sans-Serif" font-size="14.00" fill="#000000"> </text>
<text text-anchor="start" x="763.5" y="-304.8" font-family="Helvetica,sans-Serif" font-size="14.00" fill="#000000">TEXT NOT NULL</text>
<text text-anchor="start" x="598.5" y="-285.8" font-family="Helvetica,sans-Serif" font-size="14.00" fill="#000000">version</text>
<text text-anchor="start" x="754.5" y="-285.8" font-family="Helvetica,sans-Serif" font-size="14.00" fill="#000000"> </text>
<text text-anchor="start" x="763.5" y="-285.8" font-family="Helvetica,sans-Serif" font-size="14.00" fill="#000000">TEXT NOT NULL</text>
<text text-anchor="start" x="598.5" y="-266.8" font-family="Helvetica,sans-Serif" font-size="14.00" fill="#000000">version_scheme_id</text>
<text text-anchor="start" x="754.5" y="-266.8" font-family="Helvetica,sans-Serif" font-size="14.00" fill="#000000"> </text>
<text text-anchor="start" x="763.5" y="-266.8" font-family="Helvetica,sans-Serif" font-size="14.00" fill="#000000">INTEGER NOT NULL</text>
<polygon fill="none" stroke="#888888" points="595,-260 595,-376 902,-376 902,-260 595,-260"/>
</g>
<!-- coordinate_28c5d5d7&#45;&gt;versioned_package_6aa8f79d -->
<g id="edge14" class="edge">
<title>coordinate_28c5d5d7:w&#45;&gt;versioned_package_6aa8f79d:e</title>
<path fill="none" stroke="#000000" d="M984.1218,-386.4754C971.2194,-382.2715 964.0316,-373.5519 946,-366 929.7285,-359.1852 924.6789,-350.7656 911.5187,-347.9598"/>
<polygon fill="#000000" stroke="#000000" points="992.0982,-387.6017 1001.3708,-393.4558 997.0491,-388.3008 1002,-389 1002,-389 1002,-389 997.0491,-388.3008 1002.6292,-384.5442 992.0982,-387.6017 992.0982,-387.6017"/>
<ellipse fill="none" stroke="#000000" cx="988.1375" cy="-387.0424" rx="4" ry="4"/>
<polygon fill="#000000" stroke="#000000" points="902.0186,-352.0726 902.9723,-342.1182 904.9632,-342.3089 904.0094,-352.2633 902.0186,-352.0726"/>
<polyline fill="none" stroke="#000000" points="901.5,-347 906.4772,-347.4769 "/>
<polygon fill="#000000" stroke="#000000" points="906.9958,-352.5495 907.9495,-342.595 909.9404,-342.7858 908.9867,-352.7402 906.9958,-352.5495"/>
<polyline fill="none" stroke="#000000" points="906.4772,-347.4769 911.4544,-347.9538 "/>
</g>
<!-- corpus_swidtag_303bf783 -->
<g id="node2" class="node">
<title>corpus_swidtag_303bf783</title>
<polygon fill="#f2e9ce" stroke="transparent" points="1395.5,-371 1395.5,-390 1534.5,-390 1534.5,-371 1395.5,-371"/>
<text text-anchor="start" x="1397.5" y="-377.8" font-family="Helvetica,sans-Serif" font-weight="bold" font-style="italic" font-size="14.00" fill="#000000">CORPUS_SWIDTAG</text>
<polygon fill="#f2e9ce" stroke="transparent" points="1534.5,-371 1534.5,-390 1674.5,-390 1674.5,-371 1534.5,-371"/>
<text text-anchor="start" x="1633.5" y="-376.8" font-family="Helvetica,sans-Serif" font-size="14.00" fill="#000000">[table]</text>
<text text-anchor="start" x="1397.5" y="-358.8" font-family="Helvetica,sans-Serif" font-weight="bold" font-style="italic" font-size="14.00" fill="#000000">corpus_swidtag_id</text>
<text text-anchor="start" x="1528.5" y="-357.8" font-family="Helvetica,sans-Serif" font-size="14.00" fill="#000000"> </text>
<text text-anchor="start" x="1536.5" y="-357.8" font-family="Helvetica,sans-Serif" font-size="14.00" fill="#000000">INTEGER</text>
<text text-anchor="start" x="1397.5" y="-338.8" font-family="Helvetica,sans-Serif" font-size="14.00" fill="#000000">swidtag_tagid_id</text>
<text text-anchor="start" x="1528.5" y="-338.8" font-family="Helvetica,sans-Serif" font-size="14.00" fill="#000000"> </text>
<text text-anchor="start" x="1536.5" y="-338.8" font-family="Helvetica,sans-Serif" font-size="14.00" fill="#000000">INTEGER NOT NULL</text>
<text text-anchor="start" x="1397.5" y="-319.8" font-family="Helvetica,sans-Serif" font-size="14.00" fill="#000000">distribution_id</text>
<text text-anchor="start" x="1528.5" y="-319.8" font-family="Helvetica,sans-Serif" font-size="14.00" fill="#000000"> </text>
<text text-anchor="start" x="1536.5" y="-319.8" font-family="Helvetica,sans-Serif" font-size="14.00" fill="#000000">INTEGER NOT NULL</text>
<polygon fill="none" stroke="#888888" points="1394,-313 1394,-391 1675,-391 1675,-313 1394,-313"/>
</g>
<!-- distribution_2be7aae3 -->
<g id="node5" class="node">
<title>distribution_2be7aae3</title>
<polygon fill="#f2e9ce" stroke="transparent" points="986,-332 986,-351 1171,-351 1171,-332 986,-332"/>
<text text-anchor="start" x="988" y="-338.8" font-family="Helvetica,sans-Serif" font-weight="bold" font-style="italic" font-size="14.00" fill="#000000">DISTRIBUTION</text>
<polygon fill="#f2e9ce" stroke="transparent" points="1171,-332 1171,-351 1311,-351 1311,-332 1171,-332"/>
<text text-anchor="start" x="1270" y="-337.8" font-family="Helvetica,sans-Serif" font-size="14.00" fill="#000000">[table]</text>
<text text-anchor="start" x="988" y="-319.8" font-family="Helvetica,sans-Serif" font-weight="bold" font-style="italic" font-size="14.00" fill="#000000">distribution_id</text>
<text text-anchor="start" x="1165" y="-318.8" font-family="Helvetica,sans-Serif" font-size="14.00" fill="#000000"> </text>
<text text-anchor="start" x="1173" y="-318.8" font-family="Helvetica,sans-Serif" font-size="14.00" fill="#000000">INTEGER</text>
<text text-anchor="start" x="988" y="-299.8" font-family="Helvetica,sans-Serif" font-size="14.00" fill="#000000">versioned_package_id</text>
<text text-anchor="start" x="1165" y="-299.8" font-family="Helvetica,sans-Serif" font-size="14.00" fill="#000000"> </text>
<text text-anchor="start" x="1173" y="-299.8" font-family="Helvetica,sans-Serif" font-size="14.00" fill="#000000">INTEGER NOT NULL</text>
<text text-anchor="start" x="988" y="-280.8" font-family="Helvetica,sans-Serif" font-size="14.00" fill="#000000">content_data_attestation_id</text>
<text text-anchor="start" x="1165" y="-280.8" font-family="Helvetica,sans-Serif" font-size="14.00" fill="#000000"> </text>
<text text-anchor="start" x="1173" y="-280.8" font-family="Helvetica,sans-Serif" font-size="14.00" fill="#000000">INTEGER NOT NULL</text>
<text text-anchor="start" x="988" y="-261.8" font-family="Helvetica,sans-Serif" font-size="14.00" fill="#000000">freeform_description_text</text>
<text text-anchor="start" x="1165" y="-261.8" font-family="Helvetica,sans-Serif" font-size="14.00" fill="#000000"> </text>
<text text-anchor="start" x="1173" y="-261.8" font-family="Helvetica,sans-Serif" font-size="14.00" fill="#000000">TEXT NOT NULL</text>
<polygon fill="none" stroke="#888888" points="984.5,-255.5 984.5,-352.5 1311.5,-352.5 1311.5,-255.5 984.5,-255.5"/>
</g>
<!-- corpus_swidtag_303bf783&#45;&gt;distribution_2be7aae3 -->
<g id="edge3" class="edge">
<title>corpus_swidtag_303bf783:w&#45;&gt;distribution_2be7aae3:e</title>
<path fill="none" stroke="#000000" d="M1377.3147,-323C1356.3328,-323 1344.6097,-323 1321.055,-323"/>
<polygon fill="#000000" stroke="#000000" points="1385.5,-323.0001 1395.5,-327.5 1390.5,-323 1395.5,-323 1395.5,-323 1395.5,-323 1390.5,-323 1395.5,-318.5 1385.5,-323.0001 1385.5,-323.0001"/>
<ellipse fill="none" stroke="#000000" cx="1381.5" cy="-323.0001" rx="4" ry="4"/>
<polygon fill="#000000" stroke="#000000" points="1312,-328 1312,-318 1314,-318 1314,-328 1312,-328"/>
<polyline fill="none" stroke="#000000" points="1311,-323 1316,-323 "/>
<polygon fill="#000000" stroke="#000000" points="1317,-328.0001 1317,-318.0001 1319,-318.0001 1319,-328.0001 1317,-328.0001"/>
<polyline fill="none" stroke="#000000" points="1316,-323 1321,-323.0001 "/>
</g>
<!-- primary_swidtag_a699679d -->
<g id="node3" class="node">
<title>primary_swidtag_a699679d</title>
<polygon fill="#f2e9ce" stroke="transparent" points="1770.5,-452 1770.5,-471 1914.5,-471 1914.5,-452 1770.5,-452"/>
<text text-anchor="start" x="1772.5" y="-458.8" font-family="Helvetica,sans-Serif" font-weight="bold" font-style="italic" font-size="14.00" fill="#000000">PRIMARY_SWIDTAG</text>
<polygon fill="#f2e9ce" stroke="transparent" points="1914.5,-452 1914.5,-471 2054.5,-471 2054.5,-452 1914.5,-452"/>
<text text-anchor="start" x="2013.5" y="-457.8" font-family="Helvetica,sans-Serif" font-size="14.00" fill="#000000">[table]</text>
<text text-anchor="start" x="1772.5" y="-439.8" font-family="Helvetica,sans-Serif" font-weight="bold" font-style="italic" font-size="14.00" fill="#000000">primary_swidtag_id</text>
<text text-anchor="start" x="1908.5" y="-438.8" font-family="Helvetica,sans-Serif" font-size="14.00" fill="#000000"> </text>
<text text-anchor="start" x="1916.5" y="-438.8" font-family="Helvetica,sans-Serif" font-size="14.00" fill="#000000">INTEGER</text>
<text text-anchor="start" x="1772.5" y="-419.8" font-family="Helvetica,sans-Serif" font-size="14.00" fill="#000000">swidtag_tagid_id</text>
<text text-anchor="start" x="1908.5" y="-419.8" font-family="Helvetica,sans-Serif" font-size="14.00" fill="#000000"> </text>
<text text-anchor="start" x="1916.5" y="-419.8" font-family="Helvetica,sans-Serif" font-size="14.00" fill="#000000">INTEGER NOT NULL</text>
<text text-anchor="start" x="1772.5" y="-400.8" font-family="Helvetica,sans-Serif" font-size="14.00" fill="#000000">corpus_swidtag_id</text>
<text text-anchor="start" x="1908.5" y="-400.8" font-family="Helvetica,sans-Serif" font-size="14.00" fill="#000000"> </text>
<text text-anchor="start" x="1916.5" y="-400.8" font-family="Helvetica,sans-Serif" font-size="14.00" fill="#000000">INTEGER NOT NULL</text>
<polygon fill="none" stroke="#888888" points="1769.5,-394 1769.5,-472 2055.5,-472 2055.5,-394 1769.5,-394"/>
</g>
<!-- primary_swidtag_a699679d&#45;&gt;corpus_swidtag_303bf783 -->
<g id="edge1" class="edge">
<title>primary_swidtag_a699679d:w&#45;&gt;corpus_swidtag_303bf783:e</title>
<path fill="none" stroke="#000000" d="M1753.4271,-397.9824C1733.1045,-388.8187 1701.2337,-371.7131 1684.3354,-364.9044"/>
<polygon fill="#000000" stroke="#000000" points="1761.0687,-400.6758 1769.0041,-408.2441 1765.7843,-402.3379 1770.5,-404 1770.5,-404 1770.5,-404 1765.7843,-402.3379 1771.9959,-399.7559 1761.0687,-400.6758 1761.0687,-400.6758"/>
<ellipse fill="none" stroke="#000000" cx="1757.2962" cy="-399.3461" rx="4" ry="4"/>
<polygon fill="#000000" stroke="#000000" points="1674.043,-367.0785 1676.8752,-357.4879 1678.7933,-358.0544 1675.9611,-367.6449 1674.043,-367.0785"/>
<polyline fill="none" stroke="#000000" points="1674.5,-362 1679.2953,-363.4161 "/>
<polygon fill="#000000" stroke="#000000" points="1678.8382,-368.4946 1681.6704,-358.904 1683.5886,-359.4705 1680.7564,-369.061 1678.8382,-368.4946"/>
<polyline fill="none" stroke="#000000" points="1679.2953,-363.4161 1684.0906,-364.8322 "/>
</g>
<!-- versioned_corpus_swidtag_6eaf096b -->
<g id="node4" class="node">
<title>versioned_corpus_swidtag_6eaf096b</title>
<polygon fill="#f2e9ce" stroke="transparent" points="1728.5,-347 1728.5,-366 1957.5,-366 1957.5,-347 1728.5,-347"/>
<text text-anchor="start" x="1730.5" y="-353.8" font-family="Helvetica,sans-Serif" font-weight="bold" font-style="italic" font-size="14.00" fill="#000000">VERSIONED_CORPUS_SWIDTAG</text>
<polygon fill="#f2e9ce" stroke="transparent" points="1957.5,-347 1957.5,-366 2097.5,-366 2097.5,-347 1957.5,-347"/>
<text text-anchor="start" x="2056.5" y="-352.8" font-family="Helvetica,sans-Serif" font-size="14.00" fill="#000000">[table]</text>
<text text-anchor="start" x="1730.5" y="-334.8" font-family="Helvetica,sans-Serif" font-weight="bold" font-style="italic" font-size="14.00" fill="#000000">versioned_corpus_swidtag_id</text>
<text text-anchor="start" x="1943.5" y="-333.8" font-family="Helvetica,sans-Serif" font-size="14.00" fill="#000000"> </text>
<text text-anchor="start" x="1959.5" y="-333.8" font-family="Helvetica,sans-Serif" font-size="14.00" fill="#000000">INTEGER</text>
<text text-anchor="start" x="1730.5" y="-314.8" font-family="Helvetica,sans-Serif" font-size="14.00" fill="#000000">corpus_swidtag_id</text>
<text text-anchor="start" x="1943.5" y="-314.8" font-family="Helvetica,sans-Serif" font-size="14.00" fill="#000000"> </text>
<text text-anchor="start" x="1959.5" y="-314.8" font-family="Helvetica,sans-Serif" font-size="14.00" fill="#000000">INTEGER NOT NULL</text>
<text text-anchor="start" x="1730.5" y="-295.8" font-family="Helvetica,sans-Serif" font-size="14.00" fill="#000000">tag_version</text>
<text text-anchor="start" x="1943.5" y="-295.8" font-family="Helvetica,sans-Serif" font-size="14.00" fill="#000000"> </text>
<text text-anchor="start" x="1959.5" y="-295.8" font-family="Helvetica,sans-Serif" font-size="14.00" fill="#000000">INTEGER NOT NULL</text>
<text text-anchor="start" x="1730.5" y="-276.8" font-family="Helvetica,sans-Serif" font-size="14.00" fill="#000000">path_separator</text>
<text text-anchor="start" x="1943.5" y="-276.8" font-family="Helvetica,sans-Serif" font-size="14.00" fill="#000000"> </text>
<text text-anchor="start" x="1959.5" y="-276.8" font-family="Helvetica,sans-Serif" font-size="14.00" fill="#000000">TEXT NOT NULL</text>
<text text-anchor="start" x="1730.5" y="-257.8" font-family="Helvetica,sans-Serif" font-size="14.00" fill="#000000">env_var_prefix</text>
<text text-anchor="start" x="1943.5" y="-257.8" font-family="Helvetica,sans-Serif" font-size="14.00" fill="#000000"> </text>
<text text-anchor="start" x="1959.5" y="-257.8" font-family="Helvetica,sans-Serif" font-size="14.00" fill="#000000">TEXT NOT NULL</text>
<text text-anchor="start" x="1730.5" y="-238.8" font-family="Helvetica,sans-Serif" font-size="14.00" fill="#000000">env_var_suffix</text>
<text text-anchor="start" x="1943.5" y="-238.8" font-family="Helvetica,sans-Serif" font-size="14.00" fill="#000000"> </text>
<text text-anchor="start" x="1959.5" y="-238.8" font-family="Helvetica,sans-Serif" font-size="14.00" fill="#000000">TEXT NOT NULL</text>
<polygon fill="none" stroke="#888888" points="1727,-232.5 1727,-367.5 2098,-367.5 2098,-232.5 1727,-232.5"/>
</g>
<!-- versioned_corpus_swidtag_6eaf096b&#45;&gt;corpus_swidtag_303bf783 -->
<g id="edge2" class="edge">
<title>versioned_corpus_swidtag_6eaf096b:w&#45;&gt;corpus_swidtag_303bf783:e</title>
<path fill="none" stroke="#000000" d="M1711.4339,-325.7188C1701.2386,-335.7339 1698.3801,-354.0428 1684.6311,-360.0406"/>
<polygon fill="#000000" stroke="#000000" points="1719.1951,-322.6633 1730.1485,-323.1872 1723.8476,-320.8316 1728.5,-319 1728.5,-319 1728.5,-319 1723.8476,-320.8316 1726.8515,-314.8128 1719.1951,-322.6633 1719.1951,-322.6633"/>
<ellipse fill="none" stroke="#000000" cx="1715.4732" cy="-324.1286" rx="4" ry="4"/>
<polygon fill="#000000" stroke="#000000" points="1676.4313,-366.7191 1674.5324,-356.9011 1676.496,-356.5213 1678.3949,-366.3394 1676.4313,-366.7191"/>
<polyline fill="none" stroke="#000000" points="1674.5,-362 1679.409,-361.0505 "/>
<polygon fill="#000000" stroke="#000000" points="1681.3403,-365.7697 1679.4414,-355.9516 1681.405,-355.5718 1683.3039,-365.3899 1681.3403,-365.7697"/>
<polyline fill="none" stroke="#000000" points="1679.409,-361.0505 1684.3181,-360.1011 "/>
</g>
<!-- distribution_2be7aae3&#45;&gt;versioned_package_6aa8f79d -->
<g id="edge15" class="edge">
<title>distribution_2be7aae3:w&#45;&gt;versioned_package_6aa8f79d:e</title>
<path fill="none" stroke="#000000" d="M968.2182,-306.1644C945.2784,-315.1891 938.3151,-340.7441 911.7659,-346.0343"/>
<polygon fill="#000000" stroke="#000000" points="976.1547,-304.7521 986.7884,-307.4304 981.0773,-303.876 986,-303 986,-303 986,-303 981.0773,-303.876 985.2116,-298.5696 976.1547,-304.7521 976.1547,-304.7521"/>
<ellipse fill="none" stroke="#000000" cx="972.2165" cy="-305.4529" rx="4" ry="4"/>
<polygon fill="#000000" stroke="#000000" points="902.9639,-351.8844 902.0273,-341.9283 904.0185,-341.741 904.9552,-351.697 902.9639,-351.8844"/>
<polyline fill="none" stroke="#000000" points="901.5,-347 906.478,-346.5317 "/>
<polygon fill="#000000" stroke="#000000" points="907.942,-351.416 907.0053,-341.46 908.9965,-341.2726 909.9332,-351.2287 907.942,-351.416"/>
<polyline fill="none" stroke="#000000" points="906.478,-346.5317 911.456,-346.0633 "/>
</g>
<!-- package_fab13485 -->
<g id="node7" class="node">
<title>package_fab13485</title>
<polygon fill="#f2e9ce" stroke="transparent" points="292.5,-337 292.5,-356 390.5,-356 390.5,-337 292.5,-337"/>
<text text-anchor="start" x="294.5" y="-343.8" font-family="Helvetica,sans-Serif" font-weight="bold" font-style="italic" font-size="14.00" fill="#000000">PACKAGE</text>
<polygon fill="#f2e9ce" stroke="transparent" points="390.5,-337 390.5,-356 530.5,-356 530.5,-337 390.5,-337"/>
<text text-anchor="start" x="489.5" y="-342.8" font-family="Helvetica,sans-Serif" font-size="14.00" fill="#000000">[table]</text>
<text text-anchor="start" x="294.5" y="-324.8" font-family="Helvetica,sans-Serif" font-weight="bold" font-style="italic" font-size="14.00" fill="#000000">package_id</text>
<text text-anchor="start" x="384.5" y="-323.8" font-family="Helvetica,sans-Serif" font-size="14.00" fill="#000000"> </text>
<text text-anchor="start" x="392.5" y="-323.8" font-family="Helvetica,sans-Serif" font-size="14.00" fill="#000000">INTEGER</text>
<text text-anchor="start" x="294.5" y="-304.8" font-family="Helvetica,sans-Serif" font-size="14.00" fill="#000000">ecosystem_id</text>
<text text-anchor="start" x="384.5" y="-304.8" font-family="Helvetica,sans-Serif" font-size="14.00" fill="#000000"> </text>
<text text-anchor="start" x="392.5" y="-304.8" font-family="Helvetica,sans-Serif" font-size="14.00" fill="#000000">INTEGER NOT NULL</text>
<text text-anchor="start" x="294.5" y="-285.8" font-family="Helvetica,sans-Serif" font-size="14.00" fill="#000000">name</text>
<text text-anchor="start" x="384.5" y="-285.8" font-family="Helvetica,sans-Serif" font-size="14.00" fill="#000000"> </text>
<text text-anchor="start" x="392.5" y="-285.8" font-family="Helvetica,sans-Serif" font-size="14.00" fill="#000000">TEXT NOT NULL</text>
<polygon fill="none" stroke="#888888" points="291.5,-279 291.5,-357 531.5,-357 531.5,-279 291.5,-279"/>
</g>
<!-- package_fab13485&#45;&gt;ecosystem_c1ccd3f -->
<g id="edge5" class="edge">
<title>package_fab13485:w&#45;&gt;ecosystem_c1ccd3f:e</title>
<path fill="none" stroke="#000000" d="M275.193,-313.1626C259.5213,-324.2907 256.8374,-350.0544 237.0207,-356.5117"/>
<polygon fill="#000000" stroke="#000000" points="282.9172,-310.8585 293.7863,-312.3122 287.7086,-309.4293 292.5,-308 292.5,-308 292.5,-308 287.7086,-309.4293 291.2137,-303.6878 282.9172,-310.8585 282.9172,-310.8585"/>
<ellipse fill="none" stroke="#000000" cx="279.0841" cy="-312.0019" rx="4" ry="4"/>
<polygon fill="#000000" stroke="#000000" points="228.7238,-362.7988 227.2545,-352.9073 229.2328,-352.6135 230.7021,-362.505 228.7238,-362.7988"/>
<polyline fill="none" stroke="#000000" points="227,-358 231.9457,-357.2654 "/>
<polygon fill="#000000" stroke="#000000" points="233.6695,-362.0642 232.2003,-352.1727 234.1786,-351.8789 235.6478,-361.7704 233.6695,-362.0642"/>
<polyline fill="none" stroke="#000000" points="231.9457,-357.2654 236.8915,-356.5308 "/>
</g>
<!-- project__package_aaa9fdcc -->
<g id="node8" class="node">
<title>project__package_aaa9fdcc</title>
<polygon fill="#f2e9ce" stroke="transparent" points="600.5,-214 600.5,-233 756.5,-233 756.5,-214 600.5,-214"/>
<text text-anchor="start" x="602.5" y="-220.8" font-family="Helvetica,sans-Serif" font-weight="bold" font-style="italic" font-size="14.00" fill="#000000">PROJECT__PACKAGE</text>
<polygon fill="#f2e9ce" stroke="transparent" points="756.5,-214 756.5,-233 896.5,-233 896.5,-214 756.5,-214"/>
<text text-anchor="start" x="855.5" y="-219.8" font-family="Helvetica,sans-Serif" font-size="14.00" fill="#000000">[table]</text>
<text text-anchor="start" x="602.5" y="-201.8" font-family="Helvetica,sans-Serif" font-weight="bold" font-style="italic" font-size="14.00" fill="#000000">project__package_id</text>
<text text-anchor="start" x="747.5" y="-200.8" font-family="Helvetica,sans-Serif" font-size="14.00" fill="#000000"> </text>
<text text-anchor="start" x="758.5" y="-200.8" font-family="Helvetica,sans-Serif" font-size="14.00" fill="#000000">INTEGER</text>
<text text-anchor="start" x="602.5" y="-181.8" font-family="Helvetica,sans-Serif" font-size="14.00" fill="#000000">project_id</text>
<text text-anchor="start" x="747.5" y="-181.8" font-family="Helvetica,sans-Serif" font-size="14.00" fill="#000000"> </text>
<text text-anchor="start" x="758.5" y="-181.8" font-family="Helvetica,sans-Serif" font-size="14.00" fill="#000000">INTEGER NOT NULL</text>
<text text-anchor="start" x="602.5" y="-162.8" font-family="Helvetica,sans-Serif" font-size="14.00" fill="#000000">package_id</text>
<text text-anchor="start" x="747.5" y="-162.8" font-family="Helvetica,sans-Serif" font-size="14.00" fill="#000000"> </text>
<text text-anchor="start" x="758.5" y="-162.8" font-family="Helvetica,sans-Serif" font-size="14.00" fill="#000000">INTEGER NOT NULL</text>
<polygon fill="none" stroke="#888888" points="599.5,-156 599.5,-234 897.5,-234 897.5,-156 599.5,-156"/>
</g>
<!-- project__package_aaa9fdcc&#45;&gt;package_fab13485 -->
<g id="edge6" class="edge">
<title>project__package_aaa9fdcc:w&#45;&gt;package_fab13485:e</title>
<path fill="none" stroke="#000000" d="M582.8231,-169.8447C539.0579,-193.0834 595.1763,-314.2103 540.6683,-326.9208"/>
<polygon fill="#000000" stroke="#000000" points="590.7285,-168.1254 601.4564,-170.3972 595.6142,-167.0627 600.5,-166 600.5,-166 600.5,-166 595.6142,-167.0627 599.5436,-161.6028 590.7285,-168.1254 590.7285,-168.1254"/>
<ellipse fill="none" stroke="#000000" cx="586.8198" cy="-168.9755" rx="4" ry="4"/>
<polygon fill="#000000" stroke="#000000" points="532.0222,-332.8665 530.9667,-322.9224 532.9555,-322.7113 534.011,-332.6554 532.0222,-332.8665"/>
<polyline fill="none" stroke="#000000" points="530.5,-328 535.4721,-327.4723 "/>
<polygon fill="#000000" stroke="#000000" points="536.9942,-332.3388 535.9387,-322.3946 537.9276,-322.1835 538.9831,-332.1277 536.9942,-332.3388"/>
<polyline fill="none" stroke="#000000" points="535.4721,-327.4723 540.4442,-326.9445 "/>
</g>
<!-- project_185c4b58 -->
<g id="node11" class="node">
<title>project_185c4b58</title>
<polygon fill="#f2e9ce" stroke="transparent" points="281.5,-142 281.5,-161 402.5,-161 402.5,-142 281.5,-142"/>
<text text-anchor="start" x="283.5" y="-148.8" font-family="Helvetica,sans-Serif" font-weight="bold" font-style="italic" font-size="14.00" fill="#000000">PROJECT</text>
<polygon fill="#f2e9ce" stroke="transparent" points="402.5,-142 402.5,-161 542.5,-161 542.5,-142 402.5,-142"/>
<text text-anchor="start" x="501.5" y="-147.8" font-family="Helvetica,sans-Serif" font-size="14.00" fill="#000000">[table]</text>
<text text-anchor="start" x="283.5" y="-129.8" font-family="Helvetica,sans-Serif" font-weight="bold" font-style="italic" font-size="14.00" fill="#000000">project_id</text>
<text text-anchor="start" x="396.5" y="-128.8" font-family="Helvetica,sans-Serif" font-size="14.00" fill="#000000"> </text>
<text text-anchor="start" x="404.5" y="-128.8" font-family="Helvetica,sans-Serif" font-size="14.00" fill="#000000">INTEGER</text>
<text text-anchor="start" x="283.5" y="-109.8" font-family="Helvetica,sans-Serif" font-size="14.00" fill="#000000">name</text>
<text text-anchor="start" x="396.5" y="-109.8" font-family="Helvetica,sans-Serif" font-size="14.00" fill="#000000"> </text>
<text text-anchor="start" x="404.5" y="-109.8" font-family="Helvetica,sans-Serif" font-size="14.00" fill="#000000">TEXT</text>
<text text-anchor="start" x="283.5" y="-90.8" font-family="Helvetica,sans-Serif" font-size="14.00" fill="#000000">homepage_url_id</text>
<text text-anchor="start" x="396.5" y="-90.8" font-family="Helvetica,sans-Serif" font-size="14.00" fill="#000000"> </text>
<text text-anchor="start" x="404.5" y="-90.8" font-family="Helvetica,sans-Serif" font-size="14.00" fill="#000000">INTEGER NOT NULL</text>
<polygon fill="none" stroke="#888888" points="280,-84 280,-162 543,-162 543,-84 280,-84"/>
</g>
<!-- project__package_aaa9fdcc&#45;&gt;project_185c4b58 -->
<g id="edge10" class="edge">
<title>project__package_aaa9fdcc:w&#45;&gt;project_185c4b58:e</title>
<path fill="none" stroke="#000000" d="M583.4037,-178.6238C570.6841,-166.6909 569.5933,-141.5733 552.3717,-134.745"/>
<polygon fill="#000000" stroke="#000000" points="591.1304,-181.5055 598.9275,-189.2163 595.8152,-183.2528 600.5,-185 600.5,-185 600.5,-185 595.8152,-183.2528 602.0725,-180.7837 591.1304,-181.5055 591.1304,-181.5055"/>
<ellipse fill="none" stroke="#000000" cx="587.3826" cy="-180.1077" rx="4" ry="4"/>
<polygon fill="#000000" stroke="#000000" points="542.6143,-138.0977 544.3551,-128.2504 546.3246,-128.5986 544.5838,-138.4459 542.6143,-138.0977"/>
<polyline fill="none" stroke="#000000" points="542.5,-133 547.4237,-133.8704 "/>
<polygon fill="#000000" stroke="#000000" points="547.538,-138.9681 549.2788,-129.1208 551.2483,-129.469 549.5075,-139.3163 547.538,-138.9681"/>
<polyline fill="none" stroke="#000000" points="547.4237,-133.8704 552.3473,-134.7408 "/>
</g>
<!-- versioned_package_6aa8f79d&#45;&gt;package_fab13485 -->
<g id="edge7" class="edge">
<title>versioned_package_6aa8f79d:w&#45;&gt;package_fab13485:e</title>
<path fill="none" stroke="#000000" d="M578.4337,-328C564.9671,-328 556.0529,-328 540.5053,-328"/>
<polygon fill="#000000" stroke="#000000" points="586.5,-328.0001 596.5,-332.5 591.5,-328 596.5,-328 596.5,-328 596.5,-328 591.5,-328 596.5,-323.5 586.5,-328.0001 586.5,-328.0001"/>
<ellipse fill="none" stroke="#000000" cx="582.5" cy="-328.0001" rx="4" ry="4"/>
<polygon fill="#000000" stroke="#000000" points="531.5,-333 531.5,-323 533.5,-323 533.5,-333 531.5,-333"/>
<polyline fill="none" stroke="#000000" points="530.5,-328 535.5,-328 "/>
<polygon fill="#000000" stroke="#000000" points="536.5,-333.0001 536.5,-323.0001 538.5,-323.0001 538.5,-333.0001 536.5,-333.0001"/>
<polyline fill="none" stroke="#000000" points="535.5,-328 540.5,-328.0001 "/>
</g>
<!-- versioned_primary_swidtag_368892b5 -->
<g id="node10" class="node">
<title>versioned_primary_swidtag_368892b5</title>
<polygon fill="#f2e9ce" stroke="transparent" points="2151.5,-428 2151.5,-447 2384.5,-447 2384.5,-428 2151.5,-428"/>
<text text-anchor="start" x="2153.5" y="-434.8" font-family="Helvetica,sans-Serif" font-weight="bold" font-style="italic" font-size="14.00" fill="#000000">VERSIONED_PRIMARY_SWIDTAG</text>
<polygon fill="#f2e9ce" stroke="transparent" points="2384.5,-428 2384.5,-447 2524.5,-447 2524.5,-428 2384.5,-428"/>
<text text-anchor="start" x="2483.5" y="-433.8" font-family="Helvetica,sans-Serif" font-size="14.00" fill="#000000">[table]</text>
<text text-anchor="start" x="2153.5" y="-415.8" font-family="Helvetica,sans-Serif" font-weight="bold" font-style="italic" font-size="14.00" fill="#000000">versioned_primary_swidtag_id</text>
<text text-anchor="start" x="2370.5" y="-414.8" font-family="Helvetica,sans-Serif" font-size="14.00" fill="#000000"> </text>
<text text-anchor="start" x="2386.5" y="-414.8" font-family="Helvetica,sans-Serif" font-size="14.00" fill="#000000">INTEGER</text>
<text text-anchor="start" x="2153.5" y="-395.8" font-family="Helvetica,sans-Serif" font-size="14.00" fill="#000000">primary_swidtag_id</text>
<text text-anchor="start" x="2370.5" y="-395.8" font-family="Helvetica,sans-Serif" font-size="14.00" fill="#000000"> </text>
<text text-anchor="start" x="2386.5" y="-395.8" font-family="Helvetica,sans-Serif" font-size="14.00" fill="#000000">INTEGER NOT NULL</text>
<text text-anchor="start" x="2153.5" y="-376.8" font-family="Helvetica,sans-Serif" font-size="14.00" fill="#000000">versioned_corpus_swidtag_id</text>
<text text-anchor="start" x="2370.5" y="-376.8" font-family="Helvetica,sans-Serif" font-size="14.00" fill="#000000"> </text>
<text text-anchor="start" x="2386.5" y="-376.8" font-family="Helvetica,sans-Serif" font-size="14.00" fill="#000000">INTEGER NOT NULL</text>
<text text-anchor="start" x="2153.5" y="-357.8" font-family="Helvetica,sans-Serif" font-size="14.00" fill="#000000">tag_version</text>
<text text-anchor="start" x="2370.5" y="-357.8" font-family="Helvetica,sans-Serif" font-size="14.00" fill="#000000"> </text>
<text text-anchor="start" x="2386.5" y="-357.8" font-family="Helvetica,sans-Serif" font-size="14.00" fill="#000000">INTEGER NOT NULL</text>
<text text-anchor="start" x="2153.5" y="-338.8" font-family="Helvetica,sans-Serif" font-size="14.00" fill="#000000">path_separator</text>
<text text-anchor="start" x="2370.5" y="-338.8" font-family="Helvetica,sans-Serif" font-size="14.00" fill="#000000"> </text>
<text text-anchor="start" x="2386.5" y="-338.8" font-family="Helvetica,sans-Serif" font-size="14.00" fill="#000000">TEXT NOT NULL</text>
<text text-anchor="start" x="2153.5" y="-319.8" font-family="Helvetica,sans-Serif" font-size="14.00" fill="#000000">env_var_prefix</text>
<text text-anchor="start" x="2370.5" y="-319.8" font-family="Helvetica,sans-Serif" font-size="14.00" fill="#000000"> </text>
<text text-anchor="start" x="2386.5" y="-319.8" font-family="Helvetica,sans-Serif" font-size="14.00" fill="#000000">TEXT NOT NULL</text>
<text text-anchor="start" x="2153.5" y="-300.8" font-family="Helvetica,sans-Serif" font-size="14.00" fill="#000000">env_var_suffix</text>
<text text-anchor="start" x="2370.5" y="-300.8" font-family="Helvetica,sans-Serif" font-size="14.00" fill="#000000"> </text>
<text text-anchor="start" x="2386.5" y="-300.8" font-family="Helvetica,sans-Serif" font-size="14.00" fill="#000000">TEXT NOT NULL</text>
<polygon fill="none" stroke="#888888" points="2150,-294 2150,-448 2525,-448 2525,-294 2150,-294"/>
</g>
<!-- versioned_primary_swidtag_368892b5&#45;&gt;primary_swidtag_a699679d -->
<g id="edge8" class="edge">
<title>versioned_primary_swidtag_368892b5:w&#45;&gt;primary_swidtag_a699679d:e</title>
<path fill="none" stroke="#000000" d="M2133.5713,-402.4351C2105.4167,-410.7142 2096.4291,-437.5261 2064.6256,-442.277"/>
<polygon fill="#000000" stroke="#000000" points="2141.591,-401.3459 2152.1057,-404.4591 2146.5455,-400.6729 2151.5,-400 2151.5,-400 2151.5,-400 2146.5455,-400.6729 2150.8943,-395.5409 2141.591,-401.3459 2141.591,-401.3459"/>
<ellipse fill="none" stroke="#000000" cx="2137.6274" cy="-401.8842" rx="4" ry="4"/>
<polygon fill="#000000" stroke="#000000" points="2055.8536,-447.9161 2055.1413,-437.9415 2057.1362,-437.799 2057.8485,-447.7736 2055.8536,-447.9161"/>
<polyline fill="none" stroke="#000000" points="2054.5,-443 2059.4873,-442.6439 "/>
<polygon fill="#000000" stroke="#000000" points="2060.8409,-447.5599 2060.1286,-437.5853 2062.1235,-437.4429 2062.8358,-447.4175 2060.8409,-447.5599"/>
<polyline fill="none" stroke="#000000" points="2059.4873,-442.6439 2064.4746,-442.2877 "/>
</g>
<!-- versioned_primary_swidtag_368892b5&#45;&gt;versioned_corpus_swidtag_6eaf096b -->
<g id="edge13" class="edge">
<title>versioned_primary_swidtag_368892b5:w&#45;&gt;versioned_corpus_swidtag_6eaf096b:e</title>
<path fill="none" stroke="#000000" d="M2134.4339,-374.2813C2124.2386,-364.2661 2121.3801,-345.9572 2107.6311,-339.9594"/>
<polygon fill="#000000" stroke="#000000" points="2142.1951,-377.3367 2149.8515,-385.1872 2146.8476,-379.1684 2151.5,-381 2151.5,-381 2151.5,-381 2146.8476,-379.1684 2153.1485,-376.8128 2142.1951,-377.3367 2142.1951,-377.3367"/>
<ellipse fill="none" stroke="#000000" cx="2138.4732" cy="-375.8714" rx="4" ry="4"/>
<polygon fill="#000000" stroke="#000000" points="2097.5324,-343.0989 2099.4313,-333.2809 2101.3949,-333.6606 2099.496,-343.4787 2097.5324,-343.0989"/>
<polyline fill="none" stroke="#000000" points="2097.5,-338 2102.409,-338.9495 "/>
<polygon fill="#000000" stroke="#000000" points="2102.4414,-344.0484 2104.3403,-334.2303 2106.3039,-334.6101 2104.405,-344.4282 2102.4414,-344.0484"/>
<polyline fill="none" stroke="#000000" points="2102.409,-338.9495 2107.3181,-339.8989 "/>
</g>
<!-- url_1bdae -->
<g id="node14" class="node">
<title>url_1bdae</title>
<polygon fill="#f2e9ce" stroke="transparent" points="36,-104 36,-123 87,-123 87,-104 36,-104"/>
<text text-anchor="start" x="38" y="-110.8" font-family="Helvetica,sans-Serif" font-weight="bold" font-style="italic" font-size="14.00" fill="#000000">URL</text>
<polygon fill="#f2e9ce" stroke="transparent" points="87,-104 87,-123 200,-123 200,-104 87,-104"/>
<text text-anchor="start" x="159" y="-109.8" font-family="Helvetica,sans-Serif" font-size="14.00" fill="#000000">[table]</text>
<text text-anchor="start" x="38" y="-91.8" font-family="Helvetica,sans-Serif" font-weight="bold" font-style="italic" font-size="14.00" fill="#000000">url_id</text>
<text text-anchor="start" x="81" y="-90.8" font-family="Helvetica,sans-Serif" font-size="14.00" fill="#000000"> </text>
<text text-anchor="start" x="89" y="-90.8" font-family="Helvetica,sans-Serif" font-size="14.00" fill="#000000">INTEGER</text>
<text text-anchor="start" x="38" y="-71.8" font-family="Helvetica,sans-Serif" font-size="14.00" fill="#000000">href</text>
<text text-anchor="start" x="81" y="-71.8" font-family="Helvetica,sans-Serif" font-size="14.00" fill="#000000"> </text>
<text text-anchor="start" x="89" y="-71.8" font-family="Helvetica,sans-Serif" font-size="14.00" fill="#000000">TEXT NOT NULL</text>
<polygon fill="none" stroke="#888888" points="35,-65.5 35,-124.5 201,-124.5 201,-65.5 35,-65.5"/>
</g>
<!-- project_185c4b58&#45;&gt;url_1bdae -->
<g id="edge12" class="edge">
<title>project_185c4b58:w&#45;&gt;url_1bdae:e</title>
<path fill="none" stroke="#000000" d="M263.3054,-94C243.6271,-94 232.3421,-94 210.2069,-94"/>
<polygon fill="#000000" stroke="#000000" points="271.5,-94.0001 281.5,-98.5 276.5,-94 281.5,-94 281.5,-94 281.5,-94 276.5,-94 281.5,-89.5 271.5,-94.0001 271.5,-94.0001"/>
<ellipse fill="none" stroke="#000000" cx="267.5" cy="-94.0001" rx="4" ry="4"/>
<polygon fill="#000000" stroke="#000000" points="201,-99 201,-89 203,-89 203,-99 201,-99"/>
<polyline fill="none" stroke="#000000" points="200,-94 205,-94 "/>
<polygon fill="#000000" stroke="#000000" points="206,-99.0001 206,-89.0001 208,-89.0001 208,-99.0001 206,-99.0001"/>
<polyline fill="none" stroke="#000000" points="205,-94 210,-94.0001 "/>
</g>
<!-- release_6bcd2846 -->
<g id="node12" class="node">
<title>release_6bcd2846</title>
<polygon fill="#f2e9ce" stroke="transparent" points="636.5,-110 636.5,-129 720.5,-129 720.5,-110 636.5,-110"/>
<text text-anchor="start" x="638.5" y="-116.8" font-family="Helvetica,sans-Serif" font-weight="bold" font-style="italic" font-size="14.00" fill="#000000">&quot;RELEASE&quot;</text>
<polygon fill="#f2e9ce" stroke="transparent" points="720.5,-110 720.5,-129 860.5,-129 860.5,-110 720.5,-110"/>
<text text-anchor="start" x="819.5" y="-115.8" font-family="Helvetica,sans-Serif" font-size="14.00" fill="#000000">[table]</text>
<text text-anchor="start" x="638.5" y="-97.8" font-family="Helvetica,sans-Serif" font-weight="bold" font-style="italic" font-size="14.00" fill="#000000">release_id</text>
<text text-anchor="start" x="712.5" y="-96.8" font-family="Helvetica,sans-Serif" font-size="14.00" fill="#000000"> </text>
<text text-anchor="start" x="722.5" y="-96.8" font-family="Helvetica,sans-Serif" font-size="14.00" fill="#000000">INTEGER</text>
<text text-anchor="start" x="638.5" y="-77.8" font-family="Helvetica,sans-Serif" font-size="14.00" fill="#000000">project_id</text>
<text text-anchor="start" x="712.5" y="-77.8" font-family="Helvetica,sans-Serif" font-size="14.00" fill="#000000"> </text>
<text text-anchor="start" x="722.5" y="-77.8" font-family="Helvetica,sans-Serif" font-size="14.00" fill="#000000">INTEGER NOT NULL</text>
<text text-anchor="start" x="638.5" y="-58.8" font-family="Helvetica,sans-Serif" font-size="14.00" fill="#000000">version</text>
<text text-anchor="start" x="712.5" y="-58.8" font-family="Helvetica,sans-Serif" font-size="14.00" fill="#000000"> </text>
<text text-anchor="start" x="722.5" y="-58.8" font-family="Helvetica,sans-Serif" font-size="14.00" fill="#000000">TEXT NOT NULL</text>
<polygon fill="none" stroke="#888888" points="635.5,-52 635.5,-130 861.5,-130 861.5,-52 635.5,-52"/>
</g>
<!-- release_6bcd2846&#45;&gt;project_185c4b58 -->
<g id="edge9" class="edge">
<title>release_6bcd2846:w&#45;&gt;project_185c4b58:e</title>
<path fill="none" stroke="#000000" d="M618.5864,-83.9447C590.8915,-93.9567 584.4154,-126.3804 552.6809,-132.1257"/>
<polygon fill="#000000" stroke="#000000" points="626.6324,-82.6221 637.23,-85.4404 631.5662,-81.8111 636.5,-81 636.5,-81 636.5,-81 631.5662,-81.8111 635.77,-76.5596 626.6324,-82.6221 626.6324,-82.6221"/>
<ellipse fill="none" stroke="#000000" cx="622.6854" cy="-83.271" rx="4" ry="4"/>
<polygon fill="#000000" stroke="#000000" points="543.9242,-137.8961 543.0685,-127.9328 545.0611,-127.7616 545.9169,-137.7249 543.9242,-137.8961"/>
<polyline fill="none" stroke="#000000" points="542.5,-133 547.4817,-132.5721 "/>
<polygon fill="#000000" stroke="#000000" points="548.9059,-137.4682 548.0501,-127.5049 550.0428,-127.3338 550.8985,-137.2971 548.9059,-137.4682"/>
<polyline fill="none" stroke="#000000" points="547.4817,-132.5721 552.4633,-132.1443 "/>
</g>
<!-- release__versioned_package_63a70476 -->
<g id="node13" class="node">
<title>release__versioned_package_63a70476</title>
<polygon fill="#f2e9ce" stroke="transparent" points="955,-170 955,-189 1201,-189 1201,-170 955,-170"/>
<text text-anchor="start" x="957" y="-176.8" font-family="Helvetica,sans-Serif" font-weight="bold" font-style="italic" font-size="14.00" fill="#000000">RELEASE__VERSIONED_PACKAGE</text>
<polygon fill="#f2e9ce" stroke="transparent" points="1201,-170 1201,-189 1341,-189 1341,-170 1201,-170"/>
<text text-anchor="start" x="1300" y="-175.8" font-family="Helvetica,sans-Serif" font-size="14.00" fill="#000000">[table]</text>
<text text-anchor="start" x="957" y="-157.8" font-family="Helvetica,sans-Serif" font-weight="bold" font-style="italic" font-size="14.00" fill="#000000">release__versioned_package_id</text>
<text text-anchor="start" x="1185" y="-156.8" font-family="Helvetica,sans-Serif" font-size="14.00" fill="#000000"> </text>
<text text-anchor="start" x="1203" y="-156.8" font-family="Helvetica,sans-Serif" font-size="14.00" fill="#000000">INTEGER</text>
<text text-anchor="start" x="957" y="-137.8" font-family="Helvetica,sans-Serif" font-size="14.00" fill="#000000">release_id</text>
<text text-anchor="start" x="1185" y="-137.8" font-family="Helvetica,sans-Serif" font-size="14.00" fill="#000000"> </text>
<text text-anchor="start" x="1203" y="-137.8" font-family="Helvetica,sans-Serif" font-size="14.00" fill="#000000">INTEGER NOT NULL</text>
<text text-anchor="start" x="957" y="-118.8" font-family="Helvetica,sans-Serif" font-size="14.00" fill="#000000">versioned_package_id</text>
<text text-anchor="start" x="1185" y="-118.8" font-family="Helvetica,sans-Serif" font-size="14.00" fill="#000000"> </text>
<text text-anchor="start" x="1203" y="-118.8" font-family="Helvetica,sans-Serif" font-size="14.00" fill="#000000">INTEGER NOT NULL</text>
<polygon fill="none" stroke="#888888" points="954,-112 954,-190 1342,-190 1342,-112 954,-112"/>
</g>
<!-- release__versioned_package_63a70476&#45;&gt;versioned_package_6aa8f79d -->
<g id="edge16" class="edge">
<title>release__versioned_package_63a70476:w&#45;&gt;versioned_package_6aa8f79d:e</title>
<path fill="none" stroke="#000000" d="M936.921,-125.1807C874.8604,-151.46 987.6056,-332.0619 911.7146,-346.1313"/>
<polygon fill="#000000" stroke="#000000" points="945.1513,-123.7328 955.7797,-126.4319 950.0756,-122.8664 955,-122 955,-122 955,-122 950.0756,-122.8664 954.2203,-117.5681 945.1513,-123.7328 945.1513,-123.7328"/>
<ellipse fill="none" stroke="#000000" cx="941.2118" cy="-124.4259" rx="4" ry="4"/>
<polygon fill="#000000" stroke="#000000" points="902.9201,-351.8973 902.0727,-341.9332 904.0655,-341.7637 904.9129,-351.7278 902.9201,-351.8973"/>
<polyline fill="none" stroke="#000000" points="901.5,-347 906.482,-346.5763 "/>
<polygon fill="#000000" stroke="#000000" points="907.9021,-351.4735 907.0547,-341.5095 909.0475,-341.34 909.895,-351.3041 907.9021,-351.4735"/>
<polyline fill="none" stroke="#000000" points="906.482,-346.5763 911.464,-346.1525 "/>
</g>
<!-- release__versioned_package_63a70476&#45;&gt;release_6bcd2846 -->
<g id="edge11" class="edge">
<title>release__versioned_package_63a70476:w&#45;&gt;release_6bcd2846:e</title>
<path fill="none" stroke="#000000" d="M936.8034,-138.4978C910.165,-130.5618 900.8922,-106.2133 870.6137,-101.7177"/>
<polygon fill="#000000" stroke="#000000" points="945.0932,-139.6377 954.387,-145.4581 950.0466,-140.3188 955,-141 955,-141 955,-141 950.0466,-140.3188 955.613,-136.5419 945.0932,-139.6377 945.0932,-139.6377"/>
<ellipse fill="none" stroke="#000000" cx="941.1305" cy="-139.0928" rx="4" ry="4"/>
<polygon fill="#000000" stroke="#000000" points="861.1435,-106.0583 861.8514,-96.0833 863.8464,-96.2249 863.1385,-106.1998 861.1435,-106.0583"/>
<polyline fill="none" stroke="#000000" points="860.5,-101 865.4875,-101.354 "/>
<polygon fill="#000000" stroke="#000000" points="866.131,-106.4122 866.8389,-96.4373 868.8339,-96.5789 868.126,-106.5538 866.131,-106.4122"/>
<polyline fill="none" stroke="#000000" points="865.4875,-101.354 870.4749,-101.7079 "/>
</g>
</g>
</svg>
