<?xml version="1.0" encoding="UTF-8" standalone="no"?>
<!DOCTYPE svg PUBLIC "-//W3C//DTD SVG 1.1//EN"
 "http://www.w3.org/Graphics/SVG/1.1/DTD/svg11.dtd">
<!-- Generated by graphviz version 2.40.1 (20161225.0304)
 -->
<!-- Title: SchemaCrawler_Diagram Pages: 1 -->
<svg width="2457pt" height="304pt"
 viewBox="0.00 0.00 2457.00 303.50" xmlns="http://www.w3.org/2000/svg" xmlns:xlink="http://www.w3.org/1999/xlink">
<g id="graph0" class="graph" transform="scale(1 1) rotate(0) translate(4 299.5)">
<title>SchemaCrawler_Diagram</title>
<polygon fill="#ffffff" stroke="transparent" points="-4,4 -4,-299.5 2453,-299.5 2453,4 -4,4"/>
<text text-anchor="start" x="2209" y="-29.8" font-family="Helvetica,sans-Serif" font-size="14.00" fill="#000000">generated by</text>
<text text-anchor="start" x="2295" y="-29.8" font-family="Helvetica,sans-Serif" font-size="14.00" fill="#000000">SchemaCrawler 16.6.1</text>
<text text-anchor="start" x="2208" y="-10.8" font-family="Helvetica,sans-Serif" font-size="14.00" fill="#000000">generated on</text>
<text text-anchor="start" x="2295" y="-10.8" font-family="Helvetica,sans-Serif" font-size="14.00" fill="#000000">2021&#45;05&#45;04 16:16:29</text>
<polygon fill="none" stroke="#888888" points="2205,-4 2205,-44 2441,-44 2441,-4 2205,-4"/>
<!-- coordinate_28c5d5d7 -->
<g id="node1" class="node">
<title>coordinate_28c5d5d7</title>
<polygon fill="#f2e9ce" stroke="transparent" points="948.5,-256.5 948.5,-275.5 1101.5,-275.5 1101.5,-256.5 948.5,-256.5"/>
<text text-anchor="start" x="950.5" y="-263.3" font-family="Helvetica,sans-Serif" font-weight="bold" font-style="italic" font-size="14.00" fill="#000000">COORDINATE</text>
<polygon fill="#f2e9ce" stroke="transparent" points="1101.5,-256.5 1101.5,-275.5 1241.5,-275.5 1241.5,-256.5 1101.5,-256.5"/>
<text text-anchor="start" x="1200.5" y="-262.3" font-family="Helvetica,sans-Serif" font-size="14.00" fill="#000000">[table]</text>
<text text-anchor="start" x="950.5" y="-244.3" font-family="Helvetica,sans-Serif" font-weight="bold" font-style="italic" font-size="14.00" fill="#000000">coordinate_id</text>
<text text-anchor="start" x="1095.5" y="-243.3" font-family="Helvetica,sans-Serif" font-size="14.00" fill="#000000"> </text>
<text text-anchor="start" x="1103.5" y="-243.3" font-family="Helvetica,sans-Serif" font-size="14.00" fill="#000000">INTEGER</text>
<text text-anchor="start" x="950.5" y="-224.3" font-family="Helvetica,sans-Serif" font-size="14.00" fill="#000000">ecosystem_id</text>
<text text-anchor="start" x="1095.5" y="-224.3" font-family="Helvetica,sans-Serif" font-size="14.00" fill="#000000"> </text>
<text text-anchor="start" x="1103.5" y="-224.3" font-family="Helvetica,sans-Serif" font-size="14.00" fill="#000000">INTEGER NOT NULL</text>
<text text-anchor="start" x="950.5" y="-205.3" font-family="Helvetica,sans-Serif" font-size="14.00" fill="#000000">versioned_package_id</text>
<text text-anchor="start" x="1095.5" y="-205.3" font-family="Helvetica,sans-Serif" font-size="14.00" fill="#000000"> </text>
<text text-anchor="start" x="1103.5" y="-205.3" font-family="Helvetica,sans-Serif" font-size="14.00" fill="#000000">INTEGER NOT NULL</text>
<polygon fill="none" stroke="#888888" points="947,-198.5 947,-276.5 1242,-276.5 1242,-198.5 947,-198.5"/>
</g>
<!-- ecosystem_c1ccd3f -->
<g id="node6" class="node">
<title>ecosystem_c1ccd3f</title>
<polygon fill="#f2e9ce" stroke="transparent" points="9,-196.5 9,-215.5 114,-215.5 114,-196.5 9,-196.5"/>
<text text-anchor="start" x="11" y="-203.3" font-family="Helvetica,sans-Serif" font-weight="bold" font-style="italic" font-size="14.00" fill="#000000">ECOSYSTEM</text>
<polygon fill="#f2e9ce" stroke="transparent" points="114,-196.5 114,-215.5 227,-215.5 227,-196.5 114,-196.5"/>
<text text-anchor="start" x="186" y="-202.3" font-family="Helvetica,sans-Serif" font-size="14.00" fill="#000000">[table]</text>
<text text-anchor="start" x="11" y="-184.3" font-family="Helvetica,sans-Serif" font-weight="bold" font-style="italic" font-size="14.00" fill="#000000">ecosystem_id</text>
<text text-anchor="start" x="108" y="-183.3" font-family="Helvetica,sans-Serif" font-size="14.00" fill="#000000"> </text>
<text text-anchor="start" x="116" y="-183.3" font-family="Helvetica,sans-Serif" font-size="14.00" fill="#000000">INTEGER</text>
<text text-anchor="start" x="11" y="-164.3" font-family="Helvetica,sans-Serif" font-size="14.00" fill="#000000">name</text>
<text text-anchor="start" x="108" y="-164.3" font-family="Helvetica,sans-Serif" font-size="14.00" fill="#000000"> </text>
<text text-anchor="start" x="116" y="-164.3" font-family="Helvetica,sans-Serif" font-size="14.00" fill="#000000">TEXT NOT NULL</text>
<polygon fill="none" stroke="#888888" points="8,-158 8,-217 228,-217 228,-158 8,-158"/>
</g>
<!-- coordinate_28c5d5d7&#45;&gt;ecosystem_c1ccd3f -->
<g id="edge4" class="edge">
<title>coordinate_28c5d5d7:w&#45;&gt;ecosystem_c1ccd3f:e</title>
<path fill="none" stroke="#000000" d="M930.2623,-227.5201C644.2628,-228.1501 563.3849,-243.0519 272,-198.5 255.3753,-195.9581 249.7232,-189.6249 237.0857,-187.3393"/>
<polygon fill="#000000" stroke="#000000" points="938.5,-227.5111 948.505,-232 943.5,-227.5055 948.5,-227.5 948.5,-227.5 948.5,-227.5 943.5,-227.5055 948.495,-223 938.5,-227.5111 938.5,-227.5111"/>
<ellipse fill="none" stroke="#000000" cx="934.5" cy="-227.5155" rx="4" ry="4"/>
<polygon fill="#000000" stroke="#000000" points="227.5818,-191.5657 228.4113,-181.6002 230.4044,-181.7661 229.575,-191.7316 227.5818,-191.5657"/>
<polyline fill="none" stroke="#000000" points="227,-186.5 231.9828,-186.9147 "/>
<polygon fill="#000000" stroke="#000000" points="232.5646,-191.9804 233.394,-182.0149 235.3872,-182.1808 234.5577,-192.1463 232.5646,-191.9804"/>
<polyline fill="none" stroke="#000000" points="231.9828,-186.9147 236.9656,-187.3294 "/>
</g>
<!-- versioned_package_6aa8f79d -->
<g id="node8" class="node">
<title>versioned_package_6aa8f79d</title>
<polygon fill="#f2e9ce" stroke="transparent" points="573.5,-175.5 573.5,-194.5 738.5,-194.5 738.5,-175.5 573.5,-175.5"/>
<text text-anchor="start" x="575.5" y="-182.3" font-family="Helvetica,sans-Serif" font-weight="bold" font-style="italic" font-size="14.00" fill="#000000">VERSIONED_PACKAGE</text>
<polygon fill="#f2e9ce" stroke="transparent" points="738.5,-175.5 738.5,-194.5 878.5,-194.5 878.5,-175.5 738.5,-175.5"/>
<text text-anchor="start" x="837.5" y="-181.3" font-family="Helvetica,sans-Serif" font-size="14.00" fill="#000000">[table]</text>
<text text-anchor="start" x="575.5" y="-163.3" font-family="Helvetica,sans-Serif" font-weight="bold" font-style="italic" font-size="14.00" fill="#000000">versioned_package_id</text>
<text text-anchor="start" x="731.5" y="-162.3" font-family="Helvetica,sans-Serif" font-size="14.00" fill="#000000"> </text>
<text text-anchor="start" x="740.5" y="-162.3" font-family="Helvetica,sans-Serif" font-size="14.00" fill="#000000">INTEGER</text>
<text text-anchor="start" x="575.5" y="-143.3" font-family="Helvetica,sans-Serif" font-size="14.00" fill="#000000">package_id</text>
<text text-anchor="start" x="731.5" y="-143.3" font-family="Helvetica,sans-Serif" font-size="14.00" fill="#000000"> </text>
<text text-anchor="start" x="740.5" y="-143.3" font-family="Helvetica,sans-Serif" font-size="14.00" fill="#000000">INTEGER NOT NULL</text>
<text text-anchor="start" x="575.5" y="-124.3" font-family="Helvetica,sans-Serif" font-size="14.00" fill="#000000">name</text>
<text text-anchor="start" x="731.5" y="-124.3" font-family="Helvetica,sans-Serif" font-size="14.00" fill="#000000"> </text>
<text text-anchor="start" x="740.5" y="-124.3" font-family="Helvetica,sans-Serif" font-size="14.00" fill="#000000">TEXT NOT NULL</text>
<text text-anchor="start" x="575.5" y="-105.3" font-family="Helvetica,sans-Serif" font-size="14.00" fill="#000000">version</text>
<text text-anchor="start" x="731.5" y="-105.3" font-family="Helvetica,sans-Serif" font-size="14.00" fill="#000000"> </text>
<text text-anchor="start" x="740.5" y="-105.3" font-family="Helvetica,sans-Serif" font-size="14.00" fill="#000000">TEXT NOT NULL</text>
<text text-anchor="start" x="575.5" y="-86.3" font-family="Helvetica,sans-Serif" font-size="14.00" fill="#000000">version_scheme_id</text>
<text text-anchor="start" x="731.5" y="-86.3" font-family="Helvetica,sans-Serif" font-size="14.00" fill="#000000"> </text>
<text text-anchor="start" x="740.5" y="-86.3" font-family="Helvetica,sans-Serif" font-size="14.00" fill="#000000">INTEGER NOT NULL</text>
<polygon fill="none" stroke="#888888" points="572,-79.5 572,-195.5 879,-195.5 879,-79.5 572,-79.5"/>
</g>
<!-- coordinate_28c5d5d7&#45;&gt;versioned_package_6aa8f79d -->
<g id="edge9" class="edge">
<title>coordinate_28c5d5d7:w&#45;&gt;versioned_package_6aa8f79d:e</title>
<path fill="none" stroke="#000000" d="M930.8269,-204.1635C914.1639,-194.8158 908.871,-173.1743 888.5793,-167.7502"/>
<polygon fill="#000000" stroke="#000000" points="938.7881,-206.1169 947.4276,-212.8704 943.644,-207.3084 948.5,-208.5 948.5,-208.5 948.5,-208.5 943.644,-207.3084 949.5724,-204.1296 938.7881,-206.1169 938.7881,-206.1169"/>
<ellipse fill="none" stroke="#000000" cx="934.9033" cy="-205.1637" rx="4" ry="4"/>
<polygon fill="#000000" stroke="#000000" points="878.8769,-171.5851 880.1079,-161.6611 882.0927,-161.9073 880.8617,-171.8313 878.8769,-171.5851"/>
<polyline fill="none" stroke="#000000" points="878.5,-166.5 883.462,-167.1155 "/>
<polygon fill="#000000" stroke="#000000" points="883.8389,-172.2006 885.0699,-162.2766 887.0547,-162.5228 885.8236,-172.4468 883.8389,-172.2006"/>
<polyline fill="none" stroke="#000000" points="883.462,-167.1155 888.424,-167.731 "/>
</g>
<!-- corpus_swidtag_303bf783 -->
<g id="node2" class="node">
<title>corpus_swidtag_303bf783</title>
<polygon fill="#f2e9ce" stroke="transparent" points="1311.5,-190.5 1311.5,-209.5 1450.5,-209.5 1450.5,-190.5 1311.5,-190.5"/>
<text text-anchor="start" x="1313.5" y="-197.3" font-family="Helvetica,sans-Serif" font-weight="bold" font-style="italic" font-size="14.00" fill="#000000">CORPUS_SWIDTAG</text>
<polygon fill="#f2e9ce" stroke="transparent" points="1450.5,-190.5 1450.5,-209.5 1590.5,-209.5 1590.5,-190.5 1450.5,-190.5"/>
<text text-anchor="start" x="1549.5" y="-196.3" font-family="Helvetica,sans-Serif" font-size="14.00" fill="#000000">[table]</text>
<text text-anchor="start" x="1313.5" y="-178.3" font-family="Helvetica,sans-Serif" font-weight="bold" font-style="italic" font-size="14.00" fill="#000000">corpus_swidtag_id</text>
<text text-anchor="start" x="1444.5" y="-177.3" font-family="Helvetica,sans-Serif" font-size="14.00" fill="#000000"> </text>
<text text-anchor="start" x="1452.5" y="-177.3" font-family="Helvetica,sans-Serif" font-size="14.00" fill="#000000">INTEGER</text>
<text text-anchor="start" x="1313.5" y="-158.3" font-family="Helvetica,sans-Serif" font-size="14.00" fill="#000000">swidtag_tagid_id</text>
<text text-anchor="start" x="1444.5" y="-158.3" font-family="Helvetica,sans-Serif" font-size="14.00" fill="#000000"> </text>
<text text-anchor="start" x="1452.5" y="-158.3" font-family="Helvetica,sans-Serif" font-size="14.00" fill="#000000">INTEGER NOT NULL</text>
<text text-anchor="start" x="1313.5" y="-139.3" font-family="Helvetica,sans-Serif" font-size="14.00" fill="#000000">distribution_id</text>
<text text-anchor="start" x="1444.5" y="-139.3" font-family="Helvetica,sans-Serif" font-size="14.00" fill="#000000"> </text>
<text text-anchor="start" x="1452.5" y="-139.3" font-family="Helvetica,sans-Serif" font-size="14.00" fill="#000000">INTEGER NOT NULL</text>
<polygon fill="none" stroke="#888888" points="1310,-132.5 1310,-210.5 1591,-210.5 1591,-132.5 1310,-132.5"/>
</g>
<!-- distribution_2be7aae3 -->
<g id="node5" class="node">
<title>distribution_2be7aae3</title>
<polygon fill="#f2e9ce" stroke="transparent" points="932.5,-151.5 932.5,-170.5 1117.5,-170.5 1117.5,-151.5 932.5,-151.5"/>
<text text-anchor="start" x="934.5" y="-158.3" font-family="Helvetica,sans-Serif" font-weight="bold" font-style="italic" font-size="14.00" fill="#000000">DISTRIBUTION</text>
<polygon fill="#f2e9ce" stroke="transparent" points="1117.5,-151.5 1117.5,-170.5 1257.5,-170.5 1257.5,-151.5 1117.5,-151.5"/>
<text text-anchor="start" x="1216.5" y="-157.3" font-family="Helvetica,sans-Serif" font-size="14.00" fill="#000000">[table]</text>
<text text-anchor="start" x="934.5" y="-139.3" font-family="Helvetica,sans-Serif" font-weight="bold" font-style="italic" font-size="14.00" fill="#000000">distribution_id</text>
<text text-anchor="start" x="1111.5" y="-138.3" font-family="Helvetica,sans-Serif" font-size="14.00" fill="#000000"> </text>
<text text-anchor="start" x="1119.5" y="-138.3" font-family="Helvetica,sans-Serif" font-size="14.00" fill="#000000">INTEGER</text>
<text text-anchor="start" x="934.5" y="-119.3" font-family="Helvetica,sans-Serif" font-size="14.00" fill="#000000">versioned_package_id</text>
<text text-anchor="start" x="1111.5" y="-119.3" font-family="Helvetica,sans-Serif" font-size="14.00" fill="#000000"> </text>
<text text-anchor="start" x="1119.5" y="-119.3" font-family="Helvetica,sans-Serif" font-size="14.00" fill="#000000">INTEGER NOT NULL</text>
<text text-anchor="start" x="934.5" y="-100.3" font-family="Helvetica,sans-Serif" font-size="14.00" fill="#000000">content_data_attestation_id</text>
<text text-anchor="start" x="1111.5" y="-100.3" font-family="Helvetica,sans-Serif" font-size="14.00" fill="#000000"> </text>
<text text-anchor="start" x="1119.5" y="-100.3" font-family="Helvetica,sans-Serif" font-size="14.00" fill="#000000">INTEGER NOT NULL</text>
<text text-anchor="start" x="934.5" y="-81.3" font-family="Helvetica,sans-Serif" font-size="14.00" fill="#000000">freeform_description_text</text>
<text text-anchor="start" x="1111.5" y="-81.3" font-family="Helvetica,sans-Serif" font-size="14.00" fill="#000000"> </text>
<text text-anchor="start" x="1119.5" y="-81.3" font-family="Helvetica,sans-Serif" font-size="14.00" fill="#000000">TEXT NOT NULL</text>
<polygon fill="none" stroke="#888888" points="931,-75 931,-172 1258,-172 1258,-75 931,-75"/>
</g>
<!-- corpus_swidtag_303bf783&#45;&gt;distribution_2be7aae3 -->
<g id="edge3" class="edge">
<title>corpus_swidtag_303bf783:w&#45;&gt;distribution_2be7aae3:e</title>
<path fill="none" stroke="#000000" d="M1293.1748,-142.5C1284.5257,-142.5 1277.7852,-142.5 1267.5408,-142.5"/>
<polygon fill="#000000" stroke="#000000" points="1301.5,-142.5001 1311.5,-147 1306.5,-142.5 1311.5,-142.5 1311.5,-142.5 1311.5,-142.5 1306.5,-142.5 1311.5,-138 1301.5,-142.5001 1301.5,-142.5001"/>
<ellipse fill="none" stroke="#000000" cx="1297.5" cy="-142.5001" rx="4" ry="4"/>
<polygon fill="#000000" stroke="#000000" points="1258.5,-147.5 1258.5,-137.5 1260.5,-137.5 1260.5,-147.5 1258.5,-147.5"/>
<polyline fill="none" stroke="#000000" points="1257.5,-142.5 1262.5,-142.5 "/>
<polygon fill="#000000" stroke="#000000" points="1263.5,-147.5001 1263.5,-137.5001 1265.5,-137.5001 1265.5,-147.5001 1263.5,-147.5001"/>
<polyline fill="none" stroke="#000000" points="1262.5,-142.5 1267.5,-142.5001 "/>
</g>
<!-- primary_swidtag_a699679d -->
<g id="node3" class="node">
<title>primary_swidtag_a699679d</title>
<polygon fill="#f2e9ce" stroke="transparent" points="1686.5,-271.5 1686.5,-290.5 1830.5,-290.5 1830.5,-271.5 1686.5,-271.5"/>
<text text-anchor="start" x="1688.5" y="-278.3" font-family="Helvetica,sans-Serif" font-weight="bold" font-style="italic" font-size="14.00" fill="#000000">PRIMARY_SWIDTAG</text>
<polygon fill="#f2e9ce" stroke="transparent" points="1830.5,-271.5 1830.5,-290.5 1970.5,-290.5 1970.5,-271.5 1830.5,-271.5"/>
<text text-anchor="start" x="1929.5" y="-277.3" font-family="Helvetica,sans-Serif" font-size="14.00" fill="#000000">[table]</text>
<text text-anchor="start" x="1688.5" y="-259.3" font-family="Helvetica,sans-Serif" font-weight="bold" font-style="italic" font-size="14.00" fill="#000000">primary_swidtag_id</text>
<text text-anchor="start" x="1824.5" y="-258.3" font-family="Helvetica,sans-Serif" font-size="14.00" fill="#000000"> </text>
<text text-anchor="start" x="1832.5" y="-258.3" font-family="Helvetica,sans-Serif" font-size="14.00" fill="#000000">INTEGER</text>
<text text-anchor="start" x="1688.5" y="-239.3" font-family="Helvetica,sans-Serif" font-size="14.00" fill="#000000">swidtag_tagid_id</text>
<text text-anchor="start" x="1824.5" y="-239.3" font-family="Helvetica,sans-Serif" font-size="14.00" fill="#000000"> </text>
<text text-anchor="start" x="1832.5" y="-239.3" font-family="Helvetica,sans-Serif" font-size="14.00" fill="#000000">INTEGER NOT NULL</text>
<text text-anchor="start" x="1688.5" y="-220.3" font-family="Helvetica,sans-Serif" font-size="14.00" fill="#000000">corpus_swidtag_id</text>
<text text-anchor="start" x="1824.5" y="-220.3" font-family="Helvetica,sans-Serif" font-size="14.00" fill="#000000"> </text>
<text text-anchor="start" x="1832.5" y="-220.3" font-family="Helvetica,sans-Serif" font-size="14.00" fill="#000000">INTEGER NOT NULL</text>
<polygon fill="none" stroke="#888888" points="1685.5,-213.5 1685.5,-291.5 1971.5,-291.5 1971.5,-213.5 1685.5,-213.5"/>
</g>
<!-- primary_swidtag_a699679d&#45;&gt;corpus_swidtag_303bf783 -->
<g id="edge1" class="edge">
<title>primary_swidtag_a699679d:w&#45;&gt;corpus_swidtag_303bf783:e</title>
<path fill="none" stroke="#000000" d="M1669.4271,-217.4824C1649.1045,-208.3187 1617.2337,-191.2131 1600.3354,-184.4044"/>
<polygon fill="#000000" stroke="#000000" points="1677.0687,-220.1758 1685.0041,-227.7441 1681.7843,-221.8379 1686.5,-223.5 1686.5,-223.5 1686.5,-223.5 1681.7843,-221.8379 1687.9959,-219.2559 1677.0687,-220.1758 1677.0687,-220.1758"/>
<ellipse fill="none" stroke="#000000" cx="1673.2962" cy="-218.8461" rx="4" ry="4"/>
<polygon fill="#000000" stroke="#000000" points="1590.043,-186.5785 1592.8752,-176.9879 1594.7933,-177.5544 1591.9611,-187.1449 1590.043,-186.5785"/>
<polyline fill="none" stroke="#000000" points="1590.5,-181.5 1595.2953,-182.9161 "/>
<polygon fill="#000000" stroke="#000000" points="1594.8382,-187.9946 1597.6704,-178.404 1599.5886,-178.9705 1596.7564,-188.561 1594.8382,-187.9946"/>
<polyline fill="none" stroke="#000000" points="1595.2953,-182.9161 1600.0906,-184.3322 "/>
</g>
<!-- versioned_corpus_swidtag_6eaf096b -->
<g id="node4" class="node">
<title>versioned_corpus_swidtag_6eaf096b</title>
<polygon fill="#f2e9ce" stroke="transparent" points="1644.5,-166.5 1644.5,-185.5 1873.5,-185.5 1873.5,-166.5 1644.5,-166.5"/>
<text text-anchor="start" x="1646.5" y="-173.3" font-family="Helvetica,sans-Serif" font-weight="bold" font-style="italic" font-size="14.00" fill="#000000">VERSIONED_CORPUS_SWIDTAG</text>
<polygon fill="#f2e9ce" stroke="transparent" points="1873.5,-166.5 1873.5,-185.5 2013.5,-185.5 2013.5,-166.5 1873.5,-166.5"/>
<text text-anchor="start" x="1972.5" y="-172.3" font-family="Helvetica,sans-Serif" font-size="14.00" fill="#000000">[table]</text>
<text text-anchor="start" x="1646.5" y="-154.3" font-family="Helvetica,sans-Serif" font-weight="bold" font-style="italic" font-size="14.00" fill="#000000">versioned_corpus_swidtag_id</text>
<text text-anchor="start" x="1859.5" y="-153.3" font-family="Helvetica,sans-Serif" font-size="14.00" fill="#000000"> </text>
<text text-anchor="start" x="1875.5" y="-153.3" font-family="Helvetica,sans-Serif" font-size="14.00" fill="#000000">INTEGER</text>
<text text-anchor="start" x="1646.5" y="-134.3" font-family="Helvetica,sans-Serif" font-size="14.00" fill="#000000">corpus_swidtag_id</text>
<text text-anchor="start" x="1859.5" y="-134.3" font-family="Helvetica,sans-Serif" font-size="14.00" fill="#000000"> </text>
<text text-anchor="start" x="1875.5" y="-134.3" font-family="Helvetica,sans-Serif" font-size="14.00" fill="#000000">INTEGER NOT NULL</text>
<text text-anchor="start" x="1646.5" y="-115.3" font-family="Helvetica,sans-Serif" font-size="14.00" fill="#000000">tag_version</text>
<text text-anchor="start" x="1859.5" y="-115.3" font-family="Helvetica,sans-Serif" font-size="14.00" fill="#000000"> </text>
<text text-anchor="start" x="1875.5" y="-115.3" font-family="Helvetica,sans-Serif" font-size="14.00" fill="#000000">INTEGER NOT NULL</text>
<text text-anchor="start" x="1646.5" y="-96.3" font-family="Helvetica,sans-Serif" font-size="14.00" fill="#000000">path_separator</text>
<text text-anchor="start" x="1859.5" y="-96.3" font-family="Helvetica,sans-Serif" font-size="14.00" fill="#000000"> </text>
<text text-anchor="start" x="1875.5" y="-96.3" font-family="Helvetica,sans-Serif" font-size="14.00" fill="#000000">TEXT NOT NULL</text>
<text text-anchor="start" x="1646.5" y="-77.3" font-family="Helvetica,sans-Serif" font-size="14.00" fill="#000000">env_var_prefix</text>
<text text-anchor="start" x="1859.5" y="-77.3" font-family="Helvetica,sans-Serif" font-size="14.00" fill="#000000"> </text>
<text text-anchor="start" x="1875.5" y="-77.3" font-family="Helvetica,sans-Serif" font-size="14.00" fill="#000000">TEXT NOT NULL</text>
<text text-anchor="start" x="1646.5" y="-58.3" font-family="Helvetica,sans-Serif" font-size="14.00" fill="#000000">env_var_suffix</text>
<text text-anchor="start" x="1859.5" y="-58.3" font-family="Helvetica,sans-Serif" font-size="14.00" fill="#000000"> </text>
<text text-anchor="start" x="1875.5" y="-58.3" font-family="Helvetica,sans-Serif" font-size="14.00" fill="#000000">TEXT NOT NULL</text>
<polygon fill="none" stroke="#888888" points="1643,-52 1643,-187 2014,-187 2014,-52 1643,-52"/>
</g>
<!-- versioned_corpus_swidtag_6eaf096b&#45;&gt;corpus_swidtag_303bf783 -->
<g id="edge2" class="edge">
<title>versioned_corpus_swidtag_6eaf096b:w&#45;&gt;corpus_swidtag_303bf783:e</title>
<path fill="none" stroke="#000000" d="M1627.4339,-145.2188C1617.2386,-155.2339 1614.3801,-173.5428 1600.6311,-179.5406"/>
<polygon fill="#000000" stroke="#000000" points="1635.1951,-142.1633 1646.1485,-142.6872 1639.8476,-140.3316 1644.5,-138.5 1644.5,-138.5 1644.5,-138.5 1639.8476,-140.3316 1642.8515,-134.3128 1635.1951,-142.1633 1635.1951,-142.1633"/>
<ellipse fill="none" stroke="#000000" cx="1631.4732" cy="-143.6286" rx="4" ry="4"/>
<polygon fill="#000000" stroke="#000000" points="1592.4313,-186.2191 1590.5324,-176.4011 1592.496,-176.0213 1594.3949,-185.8394 1592.4313,-186.2191"/>
<polyline fill="none" stroke="#000000" points="1590.5,-181.5 1595.409,-180.5505 "/>
<polygon fill="#000000" stroke="#000000" points="1597.3403,-185.2697 1595.4414,-175.4516 1597.405,-175.0718 1599.3039,-184.8899 1597.3403,-185.2697"/>
<polyline fill="none" stroke="#000000" points="1595.409,-180.5505 1600.3181,-179.6011 "/>
</g>
<!-- distribution_2be7aae3&#45;&gt;versioned_package_6aa8f79d -->
<g id="edge10" class="edge">
<title>distribution_2be7aae3:w&#45;&gt;versioned_package_6aa8f79d:e</title>
<path fill="none" stroke="#000000" d="M915.3555,-129.375C905.1818,-139.623 902.5063,-158.3578 888.7008,-164.4951"/>
<polygon fill="#000000" stroke="#000000" points="923.2184,-126.222 934.1749,-126.6767 927.8592,-124.361 932.5,-122.5 932.5,-122.5 932.5,-122.5 927.8592,-124.361 930.8251,-118.3233 923.2184,-126.222 923.2184,-126.222"/>
<ellipse fill="none" stroke="#000000" cx="919.5058" cy="-127.7107" rx="4" ry="4"/>
<polygon fill="#000000" stroke="#000000" points="880.4455,-171.2133 878.5169,-161.401 880.4794,-161.0153 882.408,-170.8275 880.4455,-171.2133"/>
<polyline fill="none" stroke="#000000" points="878.5,-166.5 883.4061,-165.5357 "/>
<polygon fill="#000000" stroke="#000000" points="885.3517,-170.249 883.423,-160.4367 885.3855,-160.051 887.3141,-169.8632 885.3517,-170.249"/>
<polyline fill="none" stroke="#000000" points="883.4061,-165.5357 888.3123,-164.5714 "/>
</g>
<!-- package_fab13485 -->
<g id="node7" class="node">
<title>package_fab13485</title>
<polygon fill="#f2e9ce" stroke="transparent" points="281,-165.5 281,-184.5 379,-184.5 379,-165.5 281,-165.5"/>
<text text-anchor="start" x="283" y="-172.3" font-family="Helvetica,sans-Serif" font-weight="bold" font-style="italic" font-size="14.00" fill="#000000">PACKAGE</text>
<polygon fill="#f2e9ce" stroke="transparent" points="379,-165.5 379,-184.5 519,-184.5 519,-165.5 379,-165.5"/>
<text text-anchor="start" x="478" y="-171.3" font-family="Helvetica,sans-Serif" font-size="14.00" fill="#000000">[table]</text>
<text text-anchor="start" x="283" y="-153.3" font-family="Helvetica,sans-Serif" font-weight="bold" font-style="italic" font-size="14.00" fill="#000000">package_id</text>
<text text-anchor="start" x="373" y="-152.3" font-family="Helvetica,sans-Serif" font-size="14.00" fill="#000000"> </text>
<text text-anchor="start" x="381" y="-152.3" font-family="Helvetica,sans-Serif" font-size="14.00" fill="#000000">INTEGER</text>
<text text-anchor="start" x="283" y="-133.3" font-family="Helvetica,sans-Serif" font-size="14.00" fill="#000000">ecosystem_id</text>
<text text-anchor="start" x="373" y="-133.3" font-family="Helvetica,sans-Serif" font-size="14.00" fill="#000000"> </text>
<text text-anchor="start" x="381" y="-133.3" font-family="Helvetica,sans-Serif" font-size="14.00" fill="#000000">INTEGER NOT NULL</text>
<text text-anchor="start" x="283" y="-114.3" font-family="Helvetica,sans-Serif" font-size="14.00" fill="#000000">name</text>
<text text-anchor="start" x="373" y="-114.3" font-family="Helvetica,sans-Serif" font-size="14.00" fill="#000000"> </text>
<text text-anchor="start" x="381" y="-114.3" font-family="Helvetica,sans-Serif" font-size="14.00" fill="#000000">TEXT NOT NULL</text>
<polygon fill="none" stroke="#888888" points="280,-107.5 280,-185.5 520,-185.5 520,-107.5 280,-107.5"/>
</g>
<!-- package_fab13485&#45;&gt;ecosystem_c1ccd3f -->
<g id="edge5" class="edge">
<title>package_fab13485:w&#45;&gt;ecosystem_c1ccd3f:e</title>
<path fill="none" stroke="#000000" d="M264.1374,-143.4523C253.2378,-155.0443 252.1206,-177.721 236.9952,-184.5245"/>
<polygon fill="#000000" stroke="#000000" points="271.7549,-140.3117 282.7153,-140.6603 276.3775,-138.4058 281,-136.5 281,-136.5 281,-136.5 276.3775,-138.4058 279.2847,-132.3397 271.7549,-140.3117 271.7549,-140.3117"/>
<ellipse fill="none" stroke="#000000" cx="268.0569" cy="-141.8364" rx="4" ry="4"/>
<polygon fill="#000000" stroke="#000000" points="228.9505,-191.2112 227.0115,-181.401 228.9736,-181.0132 230.9126,-190.8234 228.9505,-191.2112"/>
<polyline fill="none" stroke="#000000" points="227,-186.5 231.9051,-185.5305 "/>
<polygon fill="#000000" stroke="#000000" points="233.8556,-190.2417 231.9167,-180.4315 233.8787,-180.0437 235.8177,-189.8539 233.8556,-190.2417"/>
<polyline fill="none" stroke="#000000" points="231.9051,-185.5305 236.8102,-184.561 "/>
</g>
<!-- versioned_package_6aa8f79d&#45;&gt;package_fab13485 -->
<g id="edge6" class="edge">
<title>versioned_package_6aa8f79d:w&#45;&gt;package_fab13485:e</title>
<path fill="none" stroke="#000000" d="M555.3097,-149.4974C546.3815,-151.5689 539.6607,-154.6777 529.0079,-155.9387"/>
<polygon fill="#000000" stroke="#000000" points="563.5597,-148.5915 573.9912,-151.9731 568.5299,-148.0458 573.5,-147.5 573.5,-147.5 573.5,-147.5 568.5299,-148.0458 573.0088,-143.0269 563.5597,-148.5915 563.5597,-148.5915"/>
<ellipse fill="none" stroke="#000000" cx="559.5836" cy="-149.0282" rx="4" ry="4"/>
<polygon fill="#000000" stroke="#000000" points="520.2785,-161.4361 519.7184,-151.4518 521.7153,-151.3398 522.2753,-161.3241 520.2785,-161.4361"/>
<polyline fill="none" stroke="#000000" points="519,-156.5 523.9922,-156.22 "/>
<polygon fill="#000000" stroke="#000000" points="525.2706,-161.1561 524.7106,-151.1718 526.7074,-151.0598 527.2675,-161.0441 525.2706,-161.1561"/>
<polyline fill="none" stroke="#000000" points="523.9922,-156.22 528.9843,-155.9399 "/>
</g>
<!-- versioned_primary_swidtag_368892b5 -->
<g id="node9" class="node">
<title>versioned_primary_swidtag_368892b5</title>
<polygon fill="#f2e9ce" stroke="transparent" points="2067.5,-247.5 2067.5,-266.5 2300.5,-266.5 2300.5,-247.5 2067.5,-247.5"/>
<text text-anchor="start" x="2069.5" y="-254.3" font-family="Helvetica,sans-Serif" font-weight="bold" font-style="italic" font-size="14.00" fill="#000000">VERSIONED_PRIMARY_SWIDTAG</text>
<polygon fill="#f2e9ce" stroke="transparent" points="2300.5,-247.5 2300.5,-266.5 2440.5,-266.5 2440.5,-247.5 2300.5,-247.5"/>
<text text-anchor="start" x="2399.5" y="-253.3" font-family="Helvetica,sans-Serif" font-size="14.00" fill="#000000">[table]</text>
<text text-anchor="start" x="2069.5" y="-235.3" font-family="Helvetica,sans-Serif" font-weight="bold" font-style="italic" font-size="14.00" fill="#000000">versioned_primary_swidtag_id</text>
<text text-anchor="start" x="2286.5" y="-234.3" font-family="Helvetica,sans-Serif" font-size="14.00" fill="#000000"> </text>
<text text-anchor="start" x="2302.5" y="-234.3" font-family="Helvetica,sans-Serif" font-size="14.00" fill="#000000">INTEGER</text>
<text text-anchor="start" x="2069.5" y="-215.3" font-family="Helvetica,sans-Serif" font-size="14.00" fill="#000000">primary_swidtag_id</text>
<text text-anchor="start" x="2286.5" y="-215.3" font-family="Helvetica,sans-Serif" font-size="14.00" fill="#000000"> </text>
<text text-anchor="start" x="2302.5" y="-215.3" font-family="Helvetica,sans-Serif" font-size="14.00" fill="#000000">INTEGER NOT NULL</text>
<text text-anchor="start" x="2069.5" y="-196.3" font-family="Helvetica,sans-Serif" font-size="14.00" fill="#000000">versioned_corpus_swidtag_id</text>
<text text-anchor="start" x="2286.5" y="-196.3" font-family="Helvetica,sans-Serif" font-size="14.00" fill="#000000"> </text>
<text text-anchor="start" x="2302.5" y="-196.3" font-family="Helvetica,sans-Serif" font-size="14.00" fill="#000000">INTEGER NOT NULL</text>
<text text-anchor="start" x="2069.5" y="-177.3" font-family="Helvetica,sans-Serif" font-size="14.00" fill="#000000">tag_version</text>
<text text-anchor="start" x="2286.5" y="-177.3" font-family="Helvetica,sans-Serif" font-size="14.00" fill="#000000"> </text>
<text text-anchor="start" x="2302.5" y="-177.3" font-family="Helvetica,sans-Serif" font-size="14.00" fill="#000000">INTEGER NOT NULL</text>
<text text-anchor="start" x="2069.5" y="-158.3" font-family="Helvetica,sans-Serif" font-size="14.00" fill="#000000">path_separator</text>
<text text-anchor="start" x="2286.5" y="-158.3" font-family="Helvetica,sans-Serif" font-size="14.00" fill="#000000"> </text>
<text text-anchor="start" x="2302.5" y="-158.3" font-family="Helvetica,sans-Serif" font-size="14.00" fill="#000000">TEXT NOT NULL</text>
<text text-anchor="start" x="2069.5" y="-139.3" font-family="Helvetica,sans-Serif" font-size="14.00" fill="#000000">env_var_prefix</text>
<text text-anchor="start" x="2286.5" y="-139.3" font-family="Helvetica,sans-Serif" font-size="14.00" fill="#000000"> </text>
<text text-anchor="start" x="2302.5" y="-139.3" font-family="Helvetica,sans-Serif" font-size="14.00" fill="#000000">TEXT NOT NULL</text>
<text text-anchor="start" x="2069.5" y="-120.3" font-family="Helvetica,sans-Serif" font-size="14.00" fill="#000000">env_var_suffix</text>
<text text-anchor="start" x="2286.5" y="-120.3" font-family="Helvetica,sans-Serif" font-size="14.00" fill="#000000"> </text>
<text text-anchor="start" x="2302.5" y="-120.3" font-family="Helvetica,sans-Serif" font-size="14.00" fill="#000000">TEXT NOT NULL</text>
<polygon fill="none" stroke="#888888" points="2066,-113.5 2066,-267.5 2441,-267.5 2441,-113.5 2066,-113.5"/>
</g>
<!-- versioned_primary_swidtag_368892b5&#45;&gt;primary_swidtag_a699679d -->
<g id="edge7" class="edge">
<title>versioned_primary_swidtag_368892b5:w&#45;&gt;primary_swidtag_a699679d:e</title>
<path fill="none" stroke="#000000" d="M2049.5713,-221.9351C2021.4167,-230.2142 2012.4291,-257.0261 1980.6256,-261.777"/>
<polygon fill="#000000" stroke="#000000" points="2057.591,-220.8459 2068.1057,-223.9591 2062.5455,-220.1729 2067.5,-219.5 2067.5,-219.5 2067.5,-219.5 2062.5455,-220.1729 2066.8943,-215.0409 2057.591,-220.8459 2057.591,-220.8459"/>
<ellipse fill="none" stroke="#000000" cx="2053.6274" cy="-221.3842" rx="4" ry="4"/>
<polygon fill="#000000" stroke="#000000" points="1971.8536,-267.4161 1971.1413,-257.4415 1973.1362,-257.299 1973.8485,-267.2736 1971.8536,-267.4161"/>
<polyline fill="none" stroke="#000000" points="1970.5,-262.5 1975.4873,-262.1439 "/>
<polygon fill="#000000" stroke="#000000" points="1976.8409,-267.0599 1976.1286,-257.0853 1978.1235,-256.9429 1978.8358,-266.9175 1976.8409,-267.0599"/>
<polyline fill="none" stroke="#000000" points="1975.4873,-262.1439 1980.4746,-261.7877 "/>
</g>
<!-- versioned_primary_swidtag_368892b5&#45;&gt;versioned_corpus_swidtag_6eaf096b -->
<g id="edge8" class="edge">
<title>versioned_primary_swidtag_368892b5:w&#45;&gt;versioned_corpus_swidtag_6eaf096b:e</title>
<path fill="none" stroke="#000000" d="M2050.4339,-193.7813C2040.2386,-183.7661 2037.3801,-165.4572 2023.6311,-159.4594"/>
<polygon fill="#000000" stroke="#000000" points="2058.1951,-196.8367 2065.8515,-204.6872 2062.8476,-198.6684 2067.5,-200.5 2067.5,-200.5 2067.5,-200.5 2062.8476,-198.6684 2069.1485,-196.3128 2058.1951,-196.8367 2058.1951,-196.8367"/>
<ellipse fill="none" stroke="#000000" cx="2054.4732" cy="-195.3714" rx="4" ry="4"/>
<polygon fill="#000000" stroke="#000000" points="2013.5324,-162.5989 2015.4313,-152.7809 2017.3949,-153.1606 2015.496,-162.9787 2013.5324,-162.5989"/>
<polyline fill="none" stroke="#000000" points="2013.5,-157.5 2018.409,-158.4495 "/>
<polygon fill="#000000" stroke="#000000" points="2018.4414,-163.5484 2020.3403,-153.7303 2022.3039,-154.1101 2020.405,-163.9282 2018.4414,-163.5484"/>
<polyline fill="none" stroke="#000000" points="2018.409,-158.4495 2023.3181,-159.3989 "/>
</g>
</g>
</svg>
